<?xml version="1.0" encoding="utf-8"?>
<!-- Generator: Adobe Illustrator 19.1.0, SVG Export Plug-In . SVG Version: 6.00 Build 0)  -->
<svg version="1.1" id="Layer_2" xmlns="http://www.w3.org/2000/svg" xmlns:xlink="http://www.w3.org/1999/xlink" x="0px" y="0px"
	 viewBox="-256 213.5 445.9 134.5" style="enable-background:new -256 213.5 445.9 134.5;" xml:space="preserve">
<style type="text/css">
	.st0{fill:#FFFFFF;}
</style>
<g>
	<g>
		<path class="st0" d="M-101.5,345l18.2-25c0.4-0.6,0.6-1.3,0.6-2c-0.1-1-0.6-1.9-1.5-2.4c-4-2.4-7.5-5.4-10.5-9
			c-0.5-0.7-1.3-1.1-2.2-1.1c-0.8,0-1.6,0.3-2.3,0.9l-22.1,21.7c-1.5,1.5-2.3,3.5-2.2,5.6c0.1,1.9,1,3.6,2.5,4.8l9.1,7.8
			c1.5,1.3,3.5,1.9,5.4,1.7C-104.4,347.7-102.7,346.6-101.5,345L-101.5,345z"/>
		<path class="st0" d="M-99.4,282.1c0.7,10,5.3,19.1,12.9,25.6c7.6,6.5,17.3,9.7,27.2,9c20.6-1.5,36.1-19.5,34.6-40.1
			s-19.5-36.1-40.1-34.6C-85.4,243.5-100.9,261.5-99.4,282.1L-99.4,282.1z M-63.9,254.1c13.9-1,26.1,9.5,27.1,23.4
			s-9.5,26.1-23.4,27.1c-6.7,0.5-13.3-1.7-18.4-6.1c-5.1-4.4-8.2-10.6-8.7-17.3C-88.3,267.3-77.8,255.2-63.9,254.1L-63.9,254.1z"/>
		<path class="st0" d="M-73.1,279.6c0-6.2,5-11.2,11.2-11.2c2.9,0,5.3-2.4,5.3-5.3s-2.4-5.3-5.3-5.3c-12,0-21.7,9.8-21.7,21.7
			c0,2.9,2.4,5.3,5.3,5.3S-73.1,282.5-73.1,279.6L-73.1,279.6z"/>
	</g>
	<g>
		<path class="st0" d="M-256,221.8h24.5v92.8H-256V221.8z"/>
		<path class="st0" d="M-220,243.2h20l1.7,8.6h0.6c5.6-5.5,12.8-10.3,22.5-10.3c15.7,0,22.3,11.4,22.3,29.1v44h-24.6v-40.9
			c0-9.1-2.3-11.4-7.1-11.4c-4.6,0-7.1,2-10.8,5.4v46.8H-220V243.2z"/>
		<path class="st0" d="M-100.7,234.1c-2.3-0.9-4.9-1.4-7.1-1.4c-4.6,0-7.4,2.1-7.4,8.8v1.7h12v19.1h-12v52.2h-24.5v-52.2h-9.4V244
			l9.4-0.7v-1c0-15.3,7.1-28.8,28.3-28.8c6.6,0,12,1.4,15.1,2.6L-100.7,234.1z"/>
	</g>
	<g>
		<path class="st0" d="M-14.8,286.2c6.6,5.3,14.8,9,21.7,9c7.4,0,10.6-2.4,10.6-6.6c0-4.4-4.7-5.9-12.6-9l-11.6-4.9
			c-10-4-18.7-12.4-18.7-25.8c0-15.8,14.3-28.8,34.5-28.8c10.6,0,22.3,4,30.8,12.4l-12.3,15.4c-6.3-4.4-11.7-6.7-18.6-6.7
			c-6,0-9.7,2.1-9.7,6.3c0,4.4,5.3,6,13.7,9.3l11.3,4.4c11.6,4.6,18.1,12.6,18.1,25.4c0,15.7-13.1,29.7-36.3,29.7
			C-5.6,316.3-19,312-29,303L-14.8,286.2z"/>
		<path class="st0" d="M72.9,320v19.7H48.4v-96.5h20l1.7,6.6h0.6c5.3-4.9,12.3-8.3,19.4-8.3c16.8,0,27.7,14.3,27.7,36.3
			c0,24.5-14.6,38.5-29.7,38.5c-6,0-11.4-2.6-16-7.1L72.9,320z M82,296.3c5.7,0,10.6-4.6,10.6-18.3c0-11.7-3.4-16.6-10-16.6
			c-3.7,0-6.6,1.4-9.7,5.1v26.3C75.7,295.4,78.8,296.3,82,296.3z"/>
		<path class="st0" d="M131.1,322.3c6.6,0,9.7-2.9,11.1-7.1l0.9-3.1L116,243.2h24.5l8.6,27.4c2,6.6,3.4,13.1,5.1,20.3h0.6
			c1.4-6.9,2.9-13.4,4.6-20.3l7.1-27.4h23.4l-24,70.2c-7.4,19.3-15.1,28-32.8,28c-4.9,0-7.7-0.6-10.8-1.4l4.3-18.6
			C127.8,321.7,129.7,322.3,131.1,322.3z"/>
	</g>
</g>
</svg>
