<!-- Generator: Adobe Illustrator 19.1.0, SVG Export Plug-In  -->
<svg version="1.1"
	 xmlns="http://www.w3.org/2000/svg" xmlns:xlink="http://www.w3.org/1999/xlink" xmlns:a="http://ns.adobe.com/AdobeSVGViewerExtensions/3.0/"
	 x="0px" y="0px" width="98.8px" height="106.1px" viewBox="0 0 98.8 106.1" style="enable-background:new 0 0 98.8 106.1;"
	 xml:space="preserve">
<defs>
</defs>
<g>
	<path d="M21.9,103.1l18.2-25c0.4-0.6,0.6-1.3,0.6-2c-0.1-1-0.6-1.9-1.5-2.4c-4-2.4-7.5-5.4-10.5-9c-0.5-0.7-1.3-1.1-2.2-1.1
		c-0.8,0-1.6,0.3-2.3,0.9L2.2,86.1c-1.5,1.5-2.3,3.5-2.2,5.6c0.1,1.9,1,3.6,2.5,4.8l9.1,7.8c1.5,1.3,3.5,1.9,5.4,1.7
		C19,105.8,20.7,104.7,21.9,103.1L21.9,103.1z M21.9,103.1"/>
	<path d="M23.9,40.2c0.7,10,5.3,19.1,12.9,25.6c7.6,6.5,17.3,9.7,27.2,9c20.6-1.5,36.1-19.5,34.6-40.1C97.2,14.1,79.2-1.4,58.6,0.1
		C38,1.6,22.4,19.6,23.9,40.2L23.9,40.2z M59.5,12.2c13.9-1,26.1,9.5,27.1,23.4c1,13.9-9.5,26.1-23.4,27.1
		c-6.7,0.5-13.3-1.7-18.4-6.1c-5.1-4.4-8.2-10.6-8.7-17.3C35,25.4,45.5,13.2,59.5,12.2L59.5,12.2z M59.5,12.2"/>
</g>
</svg>
