<?xml version="1.0" encoding="utf-8"?>
<!-- Generator: Adobe Illustrator 17.0.0, SVG Export Plug-In . SVG Version: 6.00 Build 0)  -->
<!DOCTYPE svg PUBLIC "-//W3C//DTD SVG 1.1//EN" "http://www.w3.org/Graphics/SVG/1.1/DTD/svg11.dtd">
<svg version="1.1" id="Layer_1" xmlns="http://www.w3.org/2000/svg" xmlns:xlink="http://www.w3.org/1999/xlink" x="0px" y="0px"
	 width="270px" height="295px" viewBox="0 0 270 295" enable-background="new 0 0 270 295" xml:space="preserve">
<g>
	
		<rect x="28.276" y="4.518" transform="matrix(0.9987 -0.0504 0.0504 0.9987 -4.9473 5.3239)" fill="#E1E1E1" width="149.779" height="192.618"/>
	
		<rect x="23.156" y="11.172" transform="matrix(0.996 -0.0889 0.0889 0.996 -9.1675 9.1425)" fill="#E8E8E8" width="149.778" height="192.618"/>
	<g>
		
			<rect x="16.417" y="14.967" transform="matrix(0.9861 -0.1659 0.1659 0.9861 -17.1942 16.6883)" fill="#EEEEEE" width="149.778" height="192.618"/>
		
			<rect x="21.634" y="36.821" transform="matrix(0.9861 -0.1659 0.1659 0.9861 -6.2837 13.93)" fill="#3A3A3A" width="117.227" height="15.522"/>
		<g>
			<g>
				<g>
					<circle fill="#68D17F" cx="50.726" cy="126.653" r="14.141"/>
					<path fill="#FFFFFF" d="M49.386,134.286c-0.711,0.12-1.466-0.056-2.069-0.544l-4.52-3.664c-1.115-0.904-1.286-2.54-0.382-3.655
						c0.904-1.116,2.54-1.286,3.655-0.382l2.551,2.068l6.001-7.041c0.931-1.092,2.571-1.223,3.664-0.292
						c1.092,0.931,1.223,2.571,0.292,3.663l-7.645,8.97C50.519,133.892,49.968,134.188,49.386,134.286z"/>
				</g>
				<g>
					<g>
						
							<rect x="74.316" y="109.493" transform="matrix(0.9861 -0.1659 0.1659 0.9861 -16.9688 19.7776)" fill="#3A3A3A" width="71.189" height="3.954"/>
						
							<rect x="76.17" y="121.381" transform="matrix(0.9861 -0.1659 0.1659 0.9861 -19.0585 18.5269)" fill="#3A3A3A" width="50.425" height="3.955"/>
					</g>
				</g>
			</g>
			<g>
				<g>
					<circle fill="#68D17F" cx="44.631" cy="90.424" r="14.141"/>
					<path fill="#FFFFFF" d="M43.291,98.056c-0.71,0.12-1.466-0.055-2.069-0.543l-4.521-3.665c-1.115-0.904-1.286-2.54-0.382-3.655
						c0.904-1.115,2.54-1.286,3.655-0.382l2.55,2.068l6.001-7.04c0.931-1.092,2.571-1.223,3.663-0.292
						c1.092,0.931,1.223,2.571,0.292,3.663l-7.645,8.97C44.425,97.663,43.873,97.959,43.291,98.056z"/>
				</g>
				<g>
					<g>
						
							<rect x="69.771" y="73.003" transform="matrix(0.9861 -0.1659 0.1659 0.9861 -10.9783 18.5174)" fill="#3A3A3A" width="71.188" height="3.954"/>
						
							<rect x="71.799" y="86.983" transform="matrix(0.9861 -0.1659 0.1659 0.9861 -13.5875 15.2338)" fill="#3A3A3A" width="25.213" height="3.954"/>
					</g>
				</g>
			</g>
			<g>
				<g>
					<circle fill="#68D17F" cx="56.661" cy="161.936" r="14.141"/>
					<path fill="#FFFFFF" d="M55.321,169.569c-0.711,0.12-1.466-0.056-2.069-0.544l-4.521-3.664
						c-1.115-0.904-1.286-2.541-0.382-3.656c0.904-1.115,2.54-1.286,3.655-0.382l2.551,2.068l6.001-7.041
						c0.931-1.092,2.571-1.223,3.663-0.292c1.092,0.931,1.223,2.572,0.292,3.664l-7.645,8.97
						C56.455,169.175,55.903,169.471,55.321,169.569z"/>
				</g>
				<g>
					<g>
						
							<rect x="79.391" y="144.92" transform="matrix(0.9861 -0.1659 0.1659 0.9861 -22.7756 21.1103)" fill="#3A3A3A" width="71.189" height="3.954"/>
						
							<rect x="81.331" y="157.837" transform="matrix(0.9861 -0.1659 0.1659 0.9861 -25.1208 18.8611)" fill="#3A3A3A" width="38.037" height="3.954"/>
					</g>
				</g>
			</g>
		</g>
		
			<rect x="131.586" y="174.692" transform="matrix(0.9861 -0.1659 0.1659 0.9861 -27.2791 26.7249)" fill="#3A3A3A" width="29.527" height="3.954"/>
	</g>
	<g>
		<path fill="#F19961" d="M162.299,128.72c-34.658-4.951-49.737-27.906-49.737-27.906l35.783-5.176
			C148.345,95.638,196.957,133.67,162.299,128.72z"/>
		<path fill="#FFAF77" d="M160.048,183.407l25.206-22.505c0,0,3.376-33.983,0-45.91c-3.375-11.928-26.556-25.881-32.183-29.031
			c-5.625-3.151-35.557,1.35-44.066,6.751c-7.032,4.464-0.929,9.059,3.558,10.352c4.487,1.293,29.482-5.626,36.008,0.225
			c6.526,5.852,14.178,24.98,5.402,31.394c-8.778,6.414-29.482-22.167-33.308-27.344c-3.825-5.175-18.581-0.792-13.052,7.202
			c5.529,7.994,23.29,33.89,29.931,41.86C144.184,164.37,160.048,183.407,160.048,183.407z"/>
		<g>
			<g>
				<polygon fill="#451613" points="78.277,101.231 78.84,97.558 72.364,98.448 				"/>
				<polygon fill="#DAC18E" points="87.236,105.446 88.648,96.209 78.84,97.558 78.277,101.231 				"/>
				<path fill="#F7F1E6" d="M165.171,117.349c1.015,0.156,1.963-0.542,2.119-1.557l0.848-5.561c0.156-1.016-0.541-1.964-1.557-2.119
					l-4.14-0.632l-1.41,9.236L165.171,117.349z"/>
				<polygon fill="#F1E4C4" points="154.061,115.525 161.031,116.717 162.442,107.481 155.472,106.288 				"/>
				<path fill="#F05C42" d="M86.121,100.428c0.329-2.155,2.526-4.218,2.526-4.218l66.824,10.079l-1.41,9.236l-66.825-10.079
					C87.236,105.446,85.793,102.582,86.121,100.428z"/>
			</g>
			<polygon fill="#451613" points="158.457,116.294 159.794,116.543 161.213,107.271 159.874,107.042 			"/>
			<polygon fill="#451613" points="155.558,115.778 156.877,116.007 158.296,106.765 156.951,106.542 			"/>
		</g>
		<path fill="#FFAF77" d="M120.664,107.34c-3.825-5.175-18.581-0.792-13.052,7.202c0.619,0.895,1.398,2.024,2.291,3.318
			l19.993,1.306C125.543,114.012,122.029,109.187,120.664,107.34z"/>
		<polygon fill="#EA563B" points="191.331,150.775 151.271,188.358 246.917,294.131 268.522,216.489 		"/>
	</g>
</g>
</svg>
