<?xml version="1.0" encoding="utf-8"?>
<!-- Generator: Adobe Illustrator 17.0.0, SVG Export Plug-In . SVG Version: 6.00 Build 0)  -->
<!DOCTYPE svg PUBLIC "-//W3C//DTD SVG 1.1//EN" "http://www.w3.org/Graphics/SVG/1.1/DTD/svg11.dtd">
<svg version="1.1" id="Layer_1" xmlns="http://www.w3.org/2000/svg" xmlns:xlink="http://www.w3.org/1999/xlink" x="0px" y="0px"
	 width="72.093px" height="109.725px" viewBox="0 0 72.093 109.725" enable-background="new 0 0 72.093 109.725"
	 xml:space="preserve">
<g>
	<defs>
		<rect id="SVGID_1_" y="0" width="72.093" height="109.725"/>
	</defs>
	<clipPath id="SVGID_2_">
		<use xlink:href="#SVGID_1_"  overflow="visible"/>
	</clipPath>
	<path clip-path="url(#SVGID_2_)" fill="#F99B1C" d="M2.716,104.086c0.544,1.462,1.88,2.482,3.433,2.617
		c1.55,0.14,3.048-0.625,3.845-1.971c2.352-3.98,6.006-8.456,11.244-10.542c-4.712-10.416-7.513-19.692-9.171-27.237
		C5.834,71.528-5.107,83.069,2.716,104.086"/>
	<path clip-path="url(#SVGID_2_)" fill="#F99B1C" d="M60.108,67.015c-1.662,7.531-4.459,16.796-9.172,27.192
		c5.199,2.104,8.828,6.563,11.174,10.519c0.791,1.349,2.291,2.106,3.84,1.971c1.554-0.143,2.887-1.162,3.429-2.624
		C77.167,83.165,66.344,71.637,60.108,67.015"/>
	<path clip-path="url(#SVGID_2_)" fill="#73ACCD" d="M58.262,46.525c0.235-23.156-12.41-38.642-18.869-45.036
		C38.415,0.525,37.092-0.01,35.716,0c-1.372,0.014-2.684,0.575-3.645,1.558c-6.26,6.429-18.389,21.894-18.158,44.964
		c0,0-1.155,21.309,13.336,50.577h8.689h0.303h8.693C59.415,67.835,58.262,46.525,58.262,46.525 M30.305,27.872
		c-0.213,0.348-3.996,6.791-2.42,16.976c0.352,2.29-1.22,4.43-3.511,4.785c-0.213,0.033-0.424,0.049-0.641,0.049
		c-2.031,0-3.818-1.478-4.137-3.55c-2.089-13.503,3.373-22.341,3.602-22.711c1.238-1.956,3.832-2.54,5.787-1.304
		C30.926,23.345,31.522,25.919,30.305,27.872 M33.987,8.106c2.572,0,4.67,2.087,4.67,4.669c0,2.584-2.098,4.675-4.67,4.675
		c-2.586,0-4.678-2.091-4.678-4.675C29.309,10.193,31.401,8.106,33.987,8.106"/>
	<rect x="23.624" y="102.075" clip-path="url(#SVGID_2_)" fill="#CCCCCC" width="25.246" height="7.65"/>
</g>
</svg>
