<?xml version="1.0" encoding="utf-8"?>
<!-- Generator: Adobe Illustrator 17.0.0, SVG Export Plug-In . SVG Version: 6.00 Build 0)  -->
<!DOCTYPE svg PUBLIC "-//W3C//DTD SVG 1.1//EN" "http://www.w3.org/Graphics/SVG/1.1/DTD/svg11.dtd">
<svg version="1.1" id="Layer_1" xmlns="http://www.w3.org/2000/svg" xmlns:xlink="http://www.w3.org/1999/xlink" x="0px" y="0px"
	 width="108.964px" height="108.301px" viewBox="0 0 108.964 108.301" enable-background="new 0 0 108.964 108.301"
	 xml:space="preserve">
<g>
	<defs>
		<rect id="SVGID_1_" width="108.964" height="108.301"/>
	</defs>
	<clipPath id="SVGID_2_">
		<use xlink:href="#SVGID_1_"  overflow="visible"/>
	</clipPath>
	<g clip-path="url(#SVGID_2_)">
		<defs>
			<polygon id="SVGID_3_" points="0,25.53 15.969,108.301 74.367,96.989 58.399,14.215 			"/>
		</defs>
		<clipPath id="SVGID_4_">
			<use xlink:href="#SVGID_3_"  overflow="visible"/>
		</clipPath>
		
			<linearGradient id="SVGID_5_" gradientUnits="userSpaceOnUse" x1="0" y1="108.301" x2="1" y2="108.301" gradientTransform="matrix(74.3667 0 0 -74.3667 0 8115.2456)">
			<stop  offset="0" style="stop-color:#FFFFFF"/>
			<stop  offset="1" style="stop-color:#E6E6E6"/>
		</linearGradient>
		<rect y="14.215" clip-path="url(#SVGID_4_)" fill="url(#SVGID_5_)" width="74.367" height="94.086"/>
	</g>
	<g clip-path="url(#SVGID_2_)">
		<defs>
			<rect id="SVGID_6_" y="0" width="108.964" height="108.301"/>
		</defs>
		<clipPath id="SVGID_7_">
			<use xlink:href="#SVGID_6_"  overflow="visible"/>
		</clipPath>
		<path clip-path="url(#SVGID_7_)" fill="#A6DAE9" d="M44.238,62.104c-0.127,1.034-0.465,2.007-0.999,2.87l6.486,6.151
			c2.151-2.731,3.415-6.136,3.444-9.748L44.238,62.104z"/>
		<path clip-path="url(#SVGID_7_)" fill="#F99B1C" d="M37.272,54.056c3.094,0.044,5.835,2.119,6.728,5.147l8.919-0.732
			c-0.018-0.099-0.024-0.196-0.044-0.299c-1.588-8.202-9.16-13.715-17.299-12.884L37.272,54.056z"/>
		<path clip-path="url(#SVGID_7_)" fill="#15B0BF" d="M31.096,57.511c0.763-1.269,1.899-2.303,3.324-2.901l-1.697-8.77
			c-4.581,1.327-8.157,4.577-10.054,8.678L31.096,57.511z"/>
		<path clip-path="url(#SVGID_7_)" fill="#4C8EB4" d="M41.252,67.095c-0.794,0.557-1.706,0.964-2.716,1.161
			c-3.872,0.752-7.625-1.789-8.376-5.669c-0.152-0.795-0.138-1.572-0.034-2.329l-8.427-2.996c-0.566,2.226-0.687,4.605-0.221,7.012
			c1.681,8.69,10.069,14.364,18.74,12.678c2.895-0.562,5.447-1.882,7.508-3.71L41.252,67.095z"/>
		
			<rect x="7.252" y="29.205" transform="matrix(0.9817 -0.1906 0.1906 0.9817 -5.5733 2.6475)" clip-path="url(#SVGID_7_)" fill="#F99B1C" width="7.444" height="2.172"/>
		
			<rect x="8.192" y="34.062" transform="matrix(0.9816 -0.1908 0.1908 0.9816 -6.4862 2.9182)" clip-path="url(#SVGID_7_)" fill="#15B0BF" width="7.444" height="2.17"/>
		
			<rect x="9.133" y="38.919" transform="matrix(0.9817 -0.1907 0.1907 0.9817 -7.3924 3.1851)" clip-path="url(#SVGID_7_)" fill="#A6DAE9" width="7.442" height="2.17"/>
		<polygon clip-path="url(#SVGID_7_)" fill="#4C8EB4" points="17.652,45.216 10.345,46.637 9.934,44.504 17.24,43.085 		"/>
		<polygon clip-path="url(#SVGID_7_)" fill="#CCCCCC" points="19.854,30.057 53.874,23.447 53.411,21.049 19.391,27.661 		"/>
		<polygon clip-path="url(#SVGID_7_)" fill="#CCCCCC" points="21.24,37.221 55.26,30.611 54.797,28.215 20.778,34.825 		"/>
		
			<rect x="22.077" y="38.664" transform="matrix(-0.9816 0.1908 -0.1908 -0.9816 85.6947 71.518)" clip-path="url(#SVGID_7_)" fill="#CCCCCC" width="34.657" height="2.438"/>
		
			<rect x="21.384" y="35.079" transform="matrix(-0.9816 0.1907 -0.1907 -0.9816 83.6345 64.5495)" clip-path="url(#SVGID_7_)" fill="#CCCCCC" width="34.655" height="2.44"/>
		<polygon clip-path="url(#SVGID_7_)" fill="#CCCCCC" points="20.546,33.637 54.566,27.027 54.103,24.633 20.084,31.244 		"/>
		
			<rect x="19.085" y="83.333" transform="matrix(0.9814 -0.1917 0.1917 0.9814 -17.2155 5.5113)" clip-path="url(#SVGID_7_)" fill="#CCCCCC" width="1.575" height="16.77"/>
		
			<rect x="43.19" y="72.812" transform="matrix(0.1903 0.9817 -0.9817 0.1903 130.2313 34.8681)" clip-path="url(#SVGID_7_)" fill="#CCCCCC" width="1.577" height="47.138"/>
		<polygon clip-path="url(#SVGID_7_)" fill="#15B0BF" points="29.024,90.887 24.882,91.69 26.299,99.014 30.44,98.207 		"/>
		
			<rect x="24.487" y="87.593" transform="matrix(0.9816 -0.1909 0.1909 0.9816 -16.5861 6.7217)" clip-path="url(#SVGID_7_)" fill="#A6DAE9" width="4.223" height="3.727"/>
		
			<rect x="32.969" y="86.519" transform="matrix(0.9816 -0.1907 0.1907 0.9816 -16.8737 8.3752)" clip-path="url(#SVGID_7_)" fill="#15B0BF" width="4.221" height="10.687"/>
		
			<rect x="31.751" y="84.498" transform="matrix(0.9816 -0.1908 0.1908 0.9816 -15.7026 8.0317)" clip-path="url(#SVGID_7_)" fill="#A6DAE9" width="4.22" height="2.138"/>
		<polygon clip-path="url(#SVGID_7_)" fill="#15B0BF" points="44.86,89.877 40.716,90.684 41.749,96.012 45.891,95.205 		"/>
		<polygon clip-path="url(#SVGID_7_)" fill="#A6DAE9" points="44.12,86.054 39.977,86.857 40.716,90.685 44.86,89.878 		"/>
		
			<rect x="49.14" y="91.028" transform="matrix(0.9816 -0.1908 0.1908 0.9816 -16.7215 11.4779)" clip-path="url(#SVGID_7_)" fill="#15B0BF" width="4.22" height="3.108"/>
		
			<rect x="48.548" y="87.977" transform="matrix(0.9817 -0.1905 0.1905 0.9817 -16.1251 11.2876)" clip-path="url(#SVGID_7_)" fill="#A6DAE9" width="4.221" height="3.108"/>
		<g opacity="0.1" clip-path="url(#SVGID_7_)">
			<g>
				<defs>
					<rect id="SVGID_8_" x="30.178" y="14.215" width="43.345" height="78.387"/>
				</defs>
				<clipPath id="SVGID_9_">
					<use xlink:href="#SVGID_8_"  overflow="visible"/>
				</clipPath>
				<polygon clip-path="url(#SVGID_9_)" fill-rule="evenodd" clip-rule="evenodd" points="30.178,84.654 73.522,92.602 
					58.399,14.214 42.474,17.3 				"/>
			</g>
		</g>
	</g>
	<g clip-path="url(#SVGID_2_)">
		<defs>
			<polygon id="SVGID_10_" points="50.999,0 35.999,82.153 93.965,92.782 108.964,10.628 			"/>
		</defs>
		<clipPath id="SVGID_11_">
			<use xlink:href="#SVGID_10_"  overflow="visible"/>
		</clipPath>
		
			<linearGradient id="SVGID_12_" gradientUnits="userSpaceOnUse" x1="0" y1="108.301" x2="1" y2="108.301" gradientTransform="matrix(-122.157 -8.0734 -8.0734 122.157 963.8345 -13182.2139)">
			<stop  offset="0" style="stop-color:#FFFFFF"/>
			<stop  offset="1" style="stop-color:#E6E6E6"/>
		</linearGradient>
		<polygon clip-path="url(#SVGID_11_)" fill="url(#SVGID_12_)" points="108.647,97.583 29.894,92.379 36.316,-4.801 115.069,0.404 
					"/>
	</g>
	<g clip-path="url(#SVGID_2_)">
		<defs>
			<rect id="SVGID_13_" y="0" width="108.964" height="108.301"/>
		</defs>
		<clipPath id="SVGID_14_">
			<use xlink:href="#SVGID_13_"  overflow="visible"/>
		</clipPath>
		<polygon clip-path="url(#SVGID_14_)" fill-rule="evenodd" clip-rule="evenodd" fill="#4C8EB4" points="50.543,43.803 
			55.549,44.72 54.71,49.282 49.703,48.365 		"/>
		
			<rect x="56.048" y="43.3" transform="matrix(-0.9836 -0.1803 0.1803 -0.9836 107.8177 103.0408)" clip-path="url(#SVGID_14_)" fill-rule="evenodd" clip-rule="evenodd" fill="#609DC1" width="5.09" height="6.639"/>
		<polygon clip-path="url(#SVGID_14_)" fill-rule="evenodd" clip-rule="evenodd" fill="#73ACCD" points="63.307,39.379 
			68.314,40.293 66.287,51.405 61.281,50.487 		"/>
		<polygon clip-path="url(#SVGID_14_)" fill-rule="evenodd" clip-rule="evenodd" fill="#87BBDA" points="68.816,41.98 
			73.822,42.897 72.076,52.466 67.07,51.549 		"/>
		
			<rect x="73.254" y="48.239" transform="matrix(-0.9836 -0.1802 0.1802 -0.9836 141.2268 114.1759)" clip-path="url(#SVGID_14_)" fill-rule="evenodd" clip-rule="evenodd" fill="#9ACAE6" width="5.089" height="4.869"/>
		
			<rect x="79.062" y="47.444" transform="matrix(-0.9836 -0.1802 0.1802 -0.9836 152.7254 115.4644)" clip-path="url(#SVGID_14_)" fill-rule="evenodd" clip-rule="evenodd" fill="#73ACCD" width="5.089" height="6.704"/>
		<polygon clip-path="url(#SVGID_14_)" fill-rule="evenodd" clip-rule="evenodd" fill="#87BBDA" points="86.036,45.126 
			91.043,46.044 89.296,55.613 84.289,54.696 		"/>
		<polygon clip-path="url(#SVGID_14_)" fill-rule="evenodd" clip-rule="evenodd" fill="#9ACAE6" points="92.974,39.864 
			97.98,40.781 95.084,56.676 90.078,55.757 		"/>
		
			<rect x="46.185" y="56.744" transform="matrix(-0.9836 -0.1804 0.1804 -0.9836 103.1422 124.3373)" clip-path="url(#SVGID_14_)" fill-rule="evenodd" clip-rule="evenodd" fill="#CCCCCC" width="22.08" height="1.47"/>
		
			<rect x="45.721" y="59.275" transform="matrix(-0.9836 -0.1803 0.1803 -0.9836 101.7727 129.2707)" clip-path="url(#SVGID_14_)" fill-rule="evenodd" clip-rule="evenodd" fill="#CCCCCC" width="22.082" height="1.469"/>
		
			<rect x="45.259" y="61.805" transform="matrix(-0.9836 -0.1803 0.1803 -0.9836 100.3999 134.2071)" clip-path="url(#SVGID_14_)" fill-rule="evenodd" clip-rule="evenodd" fill="#CCCCCC" width="22.082" height="1.47"/>
		
			<rect x="44.798" y="64.336" transform="matrix(-0.9836 -0.1803 0.1803 -0.9836 99.0309 139.1438)" clip-path="url(#SVGID_14_)" fill-rule="evenodd" clip-rule="evenodd" fill="#CCCCCC" width="22.082" height="1.47"/>
		
			<rect x="44.337" y="66.867" transform="matrix(-0.9836 -0.1803 0.1803 -0.9836 97.654 144.0803)" clip-path="url(#SVGID_14_)" fill-rule="evenodd" clip-rule="evenodd" fill="#CCCCCC" width="22.08" height="1.469"/>
		
			<rect x="43.874" y="69.398" transform="matrix(-0.9836 -0.1804 0.1804 -0.9836 96.2804 149.0194)" clip-path="url(#SVGID_14_)" fill-rule="evenodd" clip-rule="evenodd" fill="#CCCCCC" width="22.083" height="1.469"/>
		
			<rect x="43.411" y="71.928" transform="matrix(-0.9836 -0.1804 0.1804 -0.9836 94.902 153.9588)" clip-path="url(#SVGID_14_)" fill-rule="evenodd" clip-rule="evenodd" fill="#CCCCCC" width="22.082" height="1.471"/>
		
			<rect x="43.04" y="73.465" transform="matrix(-0.9836 -0.1803 0.1803 -0.9836 82.9465 155.9383)" clip-path="url(#SVGID_14_)" fill-rule="evenodd" clip-rule="evenodd" fill="#CCCCCC" width="11.042" height="1.469"/>
		
			<rect x="71.79" y="61.438" transform="matrix(-0.9836 -0.1803 0.1803 -0.9836 153.0922 138.2633)" clip-path="url(#SVGID_14_)" fill-rule="evenodd" clip-rule="evenodd" fill="#CCCCCC" width="22.082" height="1.47"/>
		
			<rect x="71.326" y="63.969" transform="matrix(-0.9836 -0.1803 0.1803 -0.9836 151.7179 143.2005)" clip-path="url(#SVGID_14_)" fill-rule="evenodd" clip-rule="evenodd" fill="#CCCCCC" width="22.083" height="1.471"/>
		
			<rect x="70.865" y="66.5" transform="matrix(-0.9836 -0.1804 0.1804 -0.9836 150.3419 148.1414)" clip-path="url(#SVGID_14_)" fill-rule="evenodd" clip-rule="evenodd" fill="#CCCCCC" width="22.082" height="1.47"/>
		
			<rect x="70.404" y="69.03" transform="matrix(-0.9836 -0.1803 0.1803 -0.9836 148.9743 153.0751)" clip-path="url(#SVGID_14_)" fill-rule="evenodd" clip-rule="evenodd" fill="#CCCCCC" width="22.082" height="1.472"/>
		
			<rect x="69.942" y="71.562" transform="matrix(-0.9836 -0.1804 0.1804 -0.9836 147.5963 158.0134)" clip-path="url(#SVGID_14_)" fill-rule="evenodd" clip-rule="evenodd" fill="#CCCCCC" width="22.081" height="1.468"/>
		
			<rect x="69.48" y="74.092" transform="matrix(-0.9836 -0.1803 0.1803 -0.9836 146.2313 162.9457)" clip-path="url(#SVGID_14_)" fill-rule="evenodd" clip-rule="evenodd" fill="#CCCCCC" width="22.081" height="1.47"/>
		
			<rect x="69.019" y="76.623" transform="matrix(-0.9836 -0.1803 0.1803 -0.9836 144.8618 167.8796)" clip-path="url(#SVGID_14_)" fill-rule="evenodd" clip-rule="evenodd" fill="#CCCCCC" width="22.08" height="1.47"/>
		
			<rect x="68.61" y="78.565" transform="matrix(-0.9836 -0.1804 0.1804 -0.9836 137.208 171.075)" clip-path="url(#SVGID_14_)" fill-rule="evenodd" clip-rule="evenodd" fill="#CCCCCC" width="15.542" height="1.471"/>
		<polygon clip-path="url(#SVGID_14_)" fill="#FEC00F" points="54.422,28.942 53.421,26.89 72.174,17.693 81.579,27.016 
			100.881,18.378 101.81,20.462 81.083,29.741 71.722,20.457 		"/>
		<polygon clip-path="url(#SVGID_14_)" fill="#FEC00F" points="101.25,24.431 99.457,24.102 100.176,20.137 96.22,19.413 
			96.546,17.615 102.3,18.667 		"/>
		<path clip-path="url(#SVGID_14_)" fill="#15B0BF" d="M83.732,28.383c0.249-1.367-0.655-2.677-2.017-2.925
			c-1.362-0.249-2.669,0.657-2.917,2.022c-0.248,1.365,0.656,2.674,2.018,2.924C82.177,30.652,83.485,29.747,83.732,28.383"/>
		<path clip-path="url(#SVGID_14_)" fill="#15B0BF" d="M74.454,19.532c0.246-1.366-0.656-2.674-2.019-2.922
			c-1.361-0.25-2.668,0.655-2.916,2.021c-0.25,1.366,0.655,2.675,2.016,2.924C72.899,21.804,74.205,20.898,74.454,19.532"/>
	</g>
</g>
</svg>
