<?xml version="1.0" encoding="utf-8"?>
<!-- Generator: Adobe Illustrator 19.1.0, SVG Export Plug-In . SVG Version: 6.00 Build 0)  -->
<svg version="1.1" id="Layer_1" xmlns="http://www.w3.org/2000/svg" xmlns:xlink="http://www.w3.org/1999/xlink" x="0px" y="0px"
	 viewBox="0 0 420.7 112.5" style="enable-background:new 0 0 420.7 112.5;" xml:space="preserve">
<style type="text/css">
	.st0{fill:#FFFFFF;}
	.st1{fill-rule:evenodd;clip-rule:evenodd;fill:#FFFFFF;}
</style>
<g>
	<path class="st0" d="M80.8,21.9C70.2,3.2,46.5-3.4,27.8,7.2C9.2,17.8,2.6,41.4,13.1,60.1c10.6,18.7,34.2,25.3,52.9,14.7
		C84.7,64.3,91.3,40.6,80.8,21.9z M21,55.7c-8.1-14.3-3-32.5,11.3-40.6C46.6,7,64.8,12,72.9,26.3c8.1,14.3,3,32.5-11.3,40.6
		C47.3,75,29.1,70,21,55.7z"/>
	<path class="st0" d="M87.3,101.1L67.2,65.5l-10.7,4.7l20.7,36.6c1.8,3.2,5.5,4.4,8.3,2.8l0.1-0.1C88.5,108,89.1,104.3,87.3,101.1z"
		/>
	<path class="st1" d="M66.4,57.6H29.2c0.4-3.6,1.5-10,4.5-10.8c1.1-0.4,2-0.7,2.9-0.9c4.1-1.1,5.6-0.5,6.5-2.5
		c1.1-2.4,0.3-2.2-0.5-4.1c0,0,0,0,0-0.1c-0.1-0.1-0.1-0.2-0.2-0.2c-1.5-1.9-2.7-4.8-2.6-8.1c0,0,0.1-0.6,0-1.4
		c0-0.2-0.1-0.5-0.1-0.7c-0.2-0.9-0.5-5.3,1.5-6.6c0.9-0.6,3.7-2.3,6.6-2.1c3.4,0.2,6.9,2.3,7.4,3.1c1.2,2.1,0.7,5.5,0.6,5.8
		c-0.2,1.2-0.4,2.9-0.5,4.7c-0.1,1.6-0.8,3.5-1.7,4.9c-0.2,0.3-0.3,0.6-0.5,0.8c0,0,0,0.1,0,0.1c-0.8,1.9-1.6,1.7-0.5,4.1
		c0.7,1.5,1.7,1.5,4,1.9c1.3,0.2,3.1,0.6,5.5,1.5C65.1,48.2,66.1,54.2,66.4,57.6z"/>
	<path class="st0" d="M123.9,23.5v11.9c-2.3-2-5.4-2.9-9.3-2.9c-5,0-8.4,2.8-8.4,6.7c0,3.9,3.5,6.7,8.4,6.7c3.8,0,7-1,9.3-2.9v11.9
		c-2.6,1.9-6.1,2.9-10.5,2.9c-5.8,0-10.6-1.7-14.4-5.2c-3.7-3.6-5.6-7.9-5.6-13.3c0-5.4,1.9-9.8,5.6-13.2c3.8-3.6,8.6-5.3,14.4-5.3
		C117.9,20.6,121.3,21.6,123.9,23.5z"/>
	<path class="st0" d="M127.2,56.9V13.4l12.9-5.2V26c2-3.4,5.1-5.2,9.4-5.2c8.6,0,13.2,5.5,13.2,15.2v20.8h-12.9V37.4
		c0-3.4-1.6-5.5-4.6-5.5c-3,0-5.1,2.4-5.1,5.6v19.3H127.2z"/>
	<path class="st0" d="M164,39.1c0-5.5,1.8-9.9,5.4-13.2c3.6-3.3,8.2-5,13.8-5c5.5,0,9.9,1.7,13.3,5.2c3.4,3.4,5.2,7.7,5.2,12.8
		c0,1.3-0.1,2.6-0.2,3.9h-24.5c0.1,2.5,3.1,4.1,7.7,4.1c4.7,0,8.7-0.8,12.3-2.3v10.2c-3.3,1.9-7.7,2.8-13,2.8
		c-5.9,0-10.7-1.7-14.4-5c-3.6-3.3-5.4-7.7-5.4-13.2V39.1z M188.9,35c0-2.2-2.6-4.3-5.7-4.3c-3.3,0-6.1,2-6.3,4.3H188.9z"/>
	<path class="st0" d="M233,23.5v11.9c-2.3-2-5.4-2.9-9.3-2.9c-5,0-8.4,2.8-8.4,6.7c0,3.9,3.5,6.7,8.4,6.7c3.8,0,7-1,9.3-2.9v11.9
		c-2.6,1.9-6.1,2.9-10.5,2.9c-5.8,0-10.6-1.7-14.4-5.2c-3.7-3.6-5.6-7.9-5.6-13.3c0-5.4,1.9-9.8,5.6-13.2c3.8-3.6,8.6-5.3,14.4-5.3
		C227,20.6,230.5,21.6,233,23.5z"/>
	<path class="st0" d="M236.3,56.9V13.4l12.9-5.2v27.9l8.7-14.4H272l-10.6,17.2l11.3,18h-14.4l-9.1-15v15H236.3z"/>
	<path class="st0" d="M278.2,56.9V26.5h-4.5v-4.8h4.5V8.3h5.2v13.5h7.8v4.8h-7.8v30.3H278.2z"/>
	<path class="st0" d="M294.4,56.9V8.3h5.2v19.4c1.9-3.9,5.7-6.5,10.8-6.5c7.7,0,12.6,5.2,12.6,13.2v22.5h-5.2V35.5
		c0-5.9-3.3-9.6-8.7-9.6c-5.6,0-9.6,4-9.6,9.9v21H294.4z"/>
	<path class="st0" d="M326.8,39.4c0-5.6,1.7-10,5-13.5c3.3-3.4,7.5-5.2,12.6-5.2c4.8,0,8.6,1.7,11.6,5c3,3.3,4.5,7.4,4.5,12.3
		c0,0.8,0,1.5-0.1,2.2h-28.5c0.3,7.8,5.1,12.8,12.6,12.8c6.3,0,10.7-2.3,12.9-5v5.9c-3.4,2.6-7.7,4-12.9,4c-5.3,0-9.6-1.7-12.9-4.9
		c-3.3-3.3-4.9-7.8-4.9-13.3V39.4z M355,35.9c0-2.8-1-5.2-3.1-7.2c-2.1-2-4.6-3.1-7.5-3.1c-3.2,0-6,1-8.3,3c-2.3,2-3.6,4.4-3.8,7.3
		H355z"/>
	<path class="st0" d="M364.3,56.9V21.7h5.2v5.9c1.7-3.9,5.2-6.5,9.9-6.5c5,0,8.4,2.3,10.3,7c2.2-4.7,5.9-7,11.2-7
		c7.2,0,11.7,5.2,11.7,13.2v22.5h-5.2V35.5c0-5.9-2.9-9.6-7.9-9.6c-5,0-8.6,4-8.6,9.9v21h-5.2V35.5c0-5.9-2.9-9.6-7.8-9.6
		c-4.8,0-8.4,4-8.4,9.9v21H364.3z"/>
</g>
</svg>
