<?xml version="1.0" encoding="utf-8"?>
<!-- Generator: Adobe Illustrator 16.0.4, SVG Export Plug-In . SVG Version: 6.00 Build 0)  -->
<!DOCTYPE svg PUBLIC "-//W3C//DTD SVG 1.1//EN" "http://www.w3.org/Graphics/SVG/1.1/DTD/svg11.dtd">
<svg version="1.1" id="Layer_1" xmlns="http://www.w3.org/2000/svg" xmlns:xlink="http://www.w3.org/1999/xlink" x="0px" y="0px"
	 width="170.901px" height="28.681px" viewBox="5.049 4 170.901 28.681" enable-background="new 5.049 4 170.901 28.681"
	 xml:space="preserve">
<g>
	<g>
		<path fill="#FFFFFF" d="M43.946,13.598c-0.144-0.556-0.34-1.066-0.591-1.532s-0.574-0.868-0.968-1.209
			c-0.394-0.34-0.856-0.605-1.384-0.793c-0.529-0.188-1.142-0.282-1.841-0.282c-1.021,0-1.905,0.206-2.648,0.618
			c-0.744,0.412-1.348,0.964-1.813,1.652c-0.467,0.691-0.812,1.475-1.035,2.353c-0.225,0.878-0.336,1.773-0.336,2.688
			s0.111,1.811,0.336,2.688c0.224,0.88,0.569,1.663,1.035,2.353c0.465,0.689,1.07,1.24,1.813,1.652
			c0.743,0.413,1.626,0.619,2.648,0.619c0.753,0,1.415-0.131,1.989-0.391c0.573-0.259,1.065-0.617,1.478-1.075
			c0.412-0.456,0.735-0.989,0.968-1.599c0.232-0.608,0.384-1.264,0.457-1.962h3.279c-0.071,1.146-0.318,2.195-0.739,3.145
			c-0.421,0.95-0.99,1.77-1.708,2.46c-0.716,0.689-1.559,1.223-2.526,1.599c-0.967,0.376-2.034,0.564-3.198,0.564
			c-1.434,0-2.719-0.265-3.857-0.793c-1.138-0.528-2.101-1.251-2.889-2.163c-0.79-0.914-1.394-1.979-1.816-3.199
			c-0.42-1.219-0.631-2.518-0.631-3.897c0-1.361,0.21-2.651,0.631-3.87c0.421-1.219,1.026-2.285,1.816-3.198
			c0.788-0.914,1.751-1.64,2.889-2.178c1.138-0.538,2.423-0.807,3.857-0.807c1.074,0,2.086,0.147,3.036,0.443
			s1.788,0.726,2.514,1.291c0.726,0.564,1.312,1.25,1.761,2.056c0.448,0.807,0.726,1.729,0.833,2.769H43.946z"/>
		<path fill="#FFFFFF" d="M49.965,7.496h3.064v7.122h0.054c0.376-0.626,0.937-1.15,1.68-1.571c0.743-0.421,1.572-0.633,2.486-0.633
			c1.522,0,2.724,0.396,3.602,1.184c0.877,0.788,1.317,1.972,1.317,3.548v9.542h-3.064v-8.736c-0.036-1.092-0.269-1.885-0.698-2.378
			c-0.431-0.493-1.103-0.739-2.016-0.739c-0.521,0-0.986,0.094-1.398,0.282c-0.413,0.188-0.761,0.448-1.048,0.779
			c-0.287,0.332-0.51,0.722-0.672,1.17c-0.162,0.447-0.242,0.923-0.242,1.424v8.197h-3.064V7.496L49.965,7.496z"/>
		<path fill="#FFFFFF" d="M67.786,20.532c0,0.537,0.076,1.058,0.229,1.559c0.152,0.502,0.38,0.941,0.686,1.317
			c0.304,0.376,0.69,0.676,1.156,0.9c0.466,0.224,1.021,0.336,1.667,0.336c0.896,0,1.616-0.192,2.163-0.578
			c0.546-0.385,0.954-0.963,1.223-1.733h2.902c-0.161,0.752-0.438,1.425-0.833,2.016c-0.394,0.591-0.869,1.089-1.424,1.491
			c-0.555,0.403-1.178,0.709-1.868,0.915s-1.411,0.309-2.163,0.309c-1.094,0-2.061-0.179-2.904-0.537
			c-0.842-0.358-1.554-0.861-2.136-1.506c-0.583-0.646-1.022-1.415-1.317-2.312s-0.444-1.881-0.444-2.956
			c0-0.985,0.157-1.922,0.47-2.81c0.313-0.887,0.761-1.666,1.344-2.338c0.582-0.673,1.286-1.205,2.109-1.599
			c0.824-0.395,1.756-0.593,2.795-0.593c1.093,0,2.074,0.229,2.943,0.687c0.87,0.457,1.59,1.061,2.164,1.813s0.99,1.618,1.25,2.595
			c0.26,0.977,0.327,1.984,0.202,3.023H67.786z M74.935,18.517c-0.036-0.484-0.139-0.949-0.309-1.397
			c-0.17-0.448-0.403-0.838-0.699-1.17c-0.295-0.332-0.654-0.6-1.075-0.806s-0.891-0.31-1.411-0.31
			c-0.538,0-1.026,0.094-1.465,0.282c-0.439,0.188-0.815,0.448-1.128,0.779c-0.314,0.332-0.564,0.722-0.753,1.17
			c-0.188,0.447-0.291,0.931-0.309,1.45L74.935,18.517L74.935,18.517z"/>
		<path fill="#FFFFFF" d="M89.718,17.441c-0.126-0.86-0.47-1.51-1.035-1.948c-0.564-0.439-1.276-0.658-2.136-0.658
			c-0.396,0-0.815,0.066-1.264,0.201c-0.448,0.134-0.86,0.385-1.237,0.752c-0.375,0.367-0.689,0.879-0.94,1.532
			c-0.251,0.654-0.377,1.511-0.377,2.566c0,0.574,0.068,1.147,0.202,1.72c0.135,0.574,0.349,1.085,0.645,1.532
			c0.296,0.448,0.676,0.812,1.142,1.089c0.466,0.278,1.031,0.417,1.694,0.417c0.896,0,1.635-0.278,2.217-0.834
			c0.582-0.555,0.945-1.334,1.089-2.337h3.064c-0.287,1.81-0.972,3.194-2.056,4.152c-1.085,0.958-2.522,1.438-4.314,1.438
			c-1.092,0-2.056-0.184-2.889-0.551c-0.833-0.367-1.537-0.869-2.11-1.506c-0.574-0.636-1.008-1.392-1.304-2.271
			c-0.296-0.878-0.444-1.828-0.444-2.85c0-1.039,0.144-2.016,0.43-2.93c0.287-0.913,0.717-1.706,1.291-2.378
			c0.572-0.673,1.285-1.2,2.136-1.587c0.851-0.384,1.851-0.578,2.998-0.578c0.807,0,1.572,0.104,2.298,0.31
			c0.727,0.207,1.371,0.516,1.935,0.928c0.564,0.413,1.026,0.932,1.384,1.559c0.358,0.628,0.573,1.372,0.645,2.231H89.718z"/>
		<path fill="#FFFFFF" d="M95.363,7.496h3.064v10.912l5.537-5.617h3.763l-5.321,5.106l5.833,8.79h-3.736l-4.247-6.746l-1.827,1.773
			v4.973h-3.064V7.496L95.363,7.496z"/>
		<path fill="#6AD17F" d="M122.16,13.759h-3.011v9.649c0,0.555,0.062,0.994,0.188,1.316c0.125,0.323,0.318,0.568,0.578,0.739
			s0.573,0.273,0.941,0.31c0.367,0.036,0.793,0.045,1.277,0.026v0.887c-0.521,0.036-1.027,0.031-1.519-0.013
			c-0.493-0.044-0.928-0.18-1.305-0.403c-0.375-0.224-0.676-0.56-0.899-1.008c-0.224-0.447-0.318-1.065-0.283-1.854v-9.649h-2.553
			v-0.887h2.553V8.571h1.021v4.301h3.011V13.759z"/>
		<path fill="#6AD17F" d="M125.062,7.496v8.332h0.054c0.179-0.52,0.435-0.98,0.767-1.385c0.331-0.402,0.715-0.747,1.154-1.033
			c0.439-0.286,0.918-0.503,1.438-0.646c0.52-0.144,1.048-0.215,1.585-0.215c0.808,0,1.493,0.099,2.057,0.296
			c0.565,0.197,1.025,0.457,1.385,0.778c0.357,0.323,0.641,0.687,0.846,1.089c0.205,0.403,0.354,0.812,0.443,1.223
			c0.09,0.413,0.144,0.812,0.162,1.196c0.018,0.386,0.027,0.722,0.027,1.009v8.547h-1.021v-8.736c0-0.34-0.027-0.77-0.081-1.29
			c-0.054-0.52-0.211-1.017-0.47-1.492c-0.26-0.474-0.655-0.882-1.183-1.223c-0.529-0.339-1.259-0.511-2.19-0.511
			c-0.79,0-1.488,0.145-2.098,0.431c-0.608,0.287-1.127,0.686-1.558,1.196s-0.757,1.12-0.981,1.827
			c-0.224,0.708-0.335,1.483-0.335,2.325v7.473h-1.021V7.496H125.062z"/>
		<path fill="#6AD17F" d="M138.367,19.914v0.161c0,0.807,0.108,1.577,0.324,2.312c0.215,0.735,0.534,1.38,0.956,1.936
			c0.422,0.556,0.952,0.994,1.59,1.317c0.638,0.322,1.379,0.484,2.223,0.484c1.384,0,2.479-0.364,3.289-1.09
			c0.808-0.726,1.365-1.733,1.671-3.023h1.021c-0.305,1.613-0.963,2.85-1.975,3.71c-1.013,0.859-2.352,1.29-4.019,1.29
			c-1.021,0-1.913-0.185-2.674-0.551c-0.762-0.368-1.398-0.87-1.908-1.506c-0.511-0.636-0.892-1.389-1.142-2.258
			c-0.251-0.869-0.376-1.805-0.376-2.81c0-0.967,0.13-1.894,0.39-2.782c0.26-0.887,0.649-1.665,1.169-2.338
			c0.52-0.672,1.169-1.209,1.949-1.612s1.697-0.604,2.755-0.604c0.967,0,1.822,0.18,2.566,0.537
			c0.743,0.358,1.367,0.847,1.869,1.465c0.501,0.618,0.882,1.336,1.141,2.15c0.26,0.815,0.391,1.688,0.391,2.62
			c0,0.091-0.004,0.193-0.013,0.31c-0.009,0.117-0.014,0.212-0.014,0.282H138.367z M148.526,19.027
			c-0.036-0.753-0.162-1.465-0.377-2.138c-0.215-0.672-0.534-1.263-0.956-1.773c-0.423-0.51-0.935-0.919-1.536-1.223
			c-0.603-0.304-1.29-0.458-2.062-0.458c-0.826,0-1.554,0.158-2.182,0.471c-0.629,0.314-1.16,0.727-1.591,1.237
			c-0.431,0.511-0.763,1.106-0.997,1.786c-0.234,0.682-0.377,1.381-0.431,2.098H148.526z"/>
		<path fill="#6AD17F" d="M151.967,12.872h1.021v2.822h0.054c0.107-0.431,0.295-0.837,0.564-1.224
			c0.269-0.385,0.596-0.721,0.982-1.007c0.385-0.287,0.814-0.511,1.29-0.673c0.475-0.161,0.973-0.241,1.492-0.241
			c0.663,0,1.237,0.085,1.72,0.255c0.484,0.17,0.896,0.394,1.237,0.672c0.34,0.278,0.609,0.592,0.807,0.941
			c0.196,0.349,0.331,0.703,0.402,1.061h0.054c0.411-0.967,0.963-1.696,1.653-2.189c0.69-0.494,1.6-0.739,2.728-0.739
			c0.627,0,1.205,0.094,1.734,0.282c0.527,0.188,0.985,0.475,1.371,0.859c0.385,0.386,0.685,0.874,0.9,1.465
			c0.214,0.591,0.323,1.29,0.323,2.097v9.434h-1.022v-9.461c0-0.878-0.135-1.567-0.403-2.069c-0.268-0.502-0.587-0.883-0.954-1.142
			c-0.368-0.261-0.735-0.421-1.103-0.484c-0.368-0.062-0.65-0.095-0.847-0.095c-0.628,0-1.206,0.108-1.735,0.323
			c-0.528,0.216-0.984,0.538-1.37,0.967c-0.385,0.431-0.685,0.964-0.9,1.6c-0.215,0.636-0.322,1.366-0.322,2.19v8.171h-1.021v-9.461
			c0-0.86-0.13-1.545-0.39-2.057c-0.26-0.51-0.564-0.891-0.914-1.142c-0.349-0.25-0.708-0.412-1.075-0.483
			c-0.367-0.071-0.658-0.108-0.874-0.108c-0.484,0-0.985,0.099-1.505,0.296c-0.52,0.197-0.995,0.502-1.424,0.914
			c-0.43,0.413-0.78,0.941-1.049,1.586c-0.268,0.645-0.403,1.407-0.403,2.284v8.171h-1.021L151.967,12.872L151.967,12.872z"/>
	</g>
	<polygon fill="#6AD17F" points="7.524,13.969 5.749,16.379 12.778,24.074 26.677,10.253 24.534,8.388 12.795,20.144 	"/>
	<rect x="111.342" y="4.601" fill="none" stroke="#6AD17F" stroke-miterlimit="10" width="63.574" height="27.479"/>
</g>
</svg>
