<?xml version="1.0" encoding="utf-8"?>
<!-- Generator: Adobe Illustrator 17.0.0, SVG Export Plug-In . SVG Version: 6.00 Build 0)  -->
<!DOCTYPE svg PUBLIC "-//W3C//DTD SVG 1.1//EN" "http://www.w3.org/Graphics/SVG/1.1/DTD/svg11.dtd">
<svg version="1.1" id="Layer_1" xmlns="http://www.w3.org/2000/svg" xmlns:xlink="http://www.w3.org/1999/xlink" x="0px" y="0px"
	 width="220px" height="143.062px" viewBox="0 0 220 143.062" enable-background="new 0 0 220 143.062" xml:space="preserve">
<g>
	<defs>
		<rect id="SVGID_1_" x="1.718" y="1.117" width="216.564" height="140.828"/>
	</defs>
	<clipPath id="SVGID_2_">
		<use xlink:href="#SVGID_1_"  overflow="visible"/>
	</clipPath>
	<g clip-path="url(#SVGID_2_)">
		<defs>
			<rect id="SVGID_3_" x="1.718" y="1.117" width="216.564" height="140.828"/>
		</defs>
		<clipPath id="SVGID_4_">
			<use xlink:href="#SVGID_3_"  overflow="visible"/>
		</clipPath>
		<path clip-path="url(#SVGID_4_)" fill-rule="evenodd" clip-rule="evenodd" fill="#FFDECC" d="M129.004,41.925
			c-13.495,5.916-17.543,9.069-19.143,10.486c-2.466,2.182-3.83,10.316-5.284,17.222h30.531h30.53
			c-1.454-6.906-2.818-15.04-5.284-17.222c-1.599-1.416-5.5-4.489-18.995-10.405L129.004,41.925z"/>
		<path clip-path="url(#SVGID_4_)" fill-rule="evenodd" clip-rule="evenodd" fill="#333333" d="M129.003,41.925
			c-13.495,5.916-17.543,9.069-19.143,10.486c-2.466,2.182-3.83,10.316-5.284,17.222h30.531h30.53
			c-1.454-6.906-2.818-15.04-5.284-17.222c-1.599-1.416-5.499-4.489-18.995-10.405L129.003,41.925z"/>
		<path clip-path="url(#SVGID_4_)" fill-rule="evenodd" clip-rule="evenodd" fill="#F6C89D" d="M128.555,30.131v10.015v4.944
			c3.604,4.261,9.5,4.414,13.104,0v-4.944V30.131C141.66,22.054,128.555,22.054,128.555,30.131"/>
		<path clip-path="url(#SVGID_4_)" fill-rule="evenodd" clip-rule="evenodd" fill="#F6C89D" d="M121.444,20.728
			c1.154-0.381,2.622,0.93,3.279,2.925c0.657,1.996,0.255,3.922-0.9,4.302c-1.153,0.38-2.622-0.929-3.279-2.926
			C119.886,23.033,120.289,21.108,121.444,20.728"/>
		<path clip-path="url(#SVGID_4_)" fill-rule="evenodd" clip-rule="evenodd" fill="#F6C89D" d="M148.714,20.728
			c-1.155-0.381-2.624,0.93-3.281,2.925c-0.657,1.996-0.253,3.922,0.9,4.302c1.155,0.38,2.623-0.929,3.28-2.926
			C150.27,23.033,149.867,21.108,148.714,20.728"/>
		<polygon clip-path="url(#SVGID_4_)" fill-rule="evenodd" clip-rule="evenodd" fill="#FFFFFF" points="128.555,40.146 
			127.983,42.375 129.586,53.978 135.142,48.343 		"/>
		<g opacity="0.2" clip-path="url(#SVGID_4_)">
			<g>
				<defs>
					<rect id="SVGID_5_" x="128.556" y="37.375" width="13.104" height="4.593"/>
				</defs>
				<clipPath id="SVGID_6_">
					<use xlink:href="#SVGID_5_"  overflow="visible"/>
				</clipPath>
				<path clip-path="url(#SVGID_6_)" d="M128.555,37.375v0.473c0,0,3.347,3.973,6.54,4.117c3.193,0.143,6.564-3.847,6.564-3.847
					v-0.726"/>
			</g>
		</g>
		<path clip-path="url(#SVGID_4_)" fill-rule="evenodd" clip-rule="evenodd" fill="#F6C89D" d="M135.118,3.275
			c-20.158,0-12.432,27.613-11.115,29.728c1.452,2.333,7.859,7.475,11.115,7.475c3.257,0,9.663-5.142,11.116-7.475
			C147.552,30.888,155.277,3.275,135.118,3.275"/>
		<path clip-path="url(#SVGID_4_)" fill="#80604A" d="M149.432,22.19c1.051-5.135,0.372-17.097-3.626-16.699
			c-3.717-3.778-16.669-4.474-20.217-0.398c-8.122,1.564-4.353,17.166-4.353,17.166c0.254,1.516,0.604,2.907,0.961,4.072
			c0.544-0.038,1.088-0.072,1.635-0.101c-0.589-1.073-1.076-2.175-1.265-2.985c-0.107-0.461-0.344-2.14-0.329-2.507
			c0.114-2.806,2.145-10.977,5.641-11.618c1.363-0.25,4.768,2.817,7.001,2.813c2.347-0.062,5.294-3.151,6.814-2.945
			c3.633,0.492,6.715,7.995,6.683,11.617c-0.003,0.466-0.59,3.246-1.47,5.214c0.585-0.031,1.168-0.067,1.75-0.108
			c0.297-1.045,0.576-2.236,0.788-3.515L149.432,22.19z"/>
		<polygon clip-path="url(#SVGID_4_)" fill-rule="evenodd" clip-rule="evenodd" fill="#FFFFFF" points="141.66,40.146 
			142.111,42.338 140.606,54.094 135.142,48.343 		"/>
		<g opacity="0.05" clip-path="url(#SVGID_4_)">
			<g>
				<defs>
					<rect id="SVGID_7_" x="128.556" y="39.951" width="13.104" height="8.392"/>
				</defs>
				<clipPath id="SVGID_8_">
					<use xlink:href="#SVGID_7_"  overflow="visible"/>
				</clipPath>
				<polygon clip-path="url(#SVGID_8_)" points="128.555,40.146 135.142,48.343 141.66,40.146 141.66,39.951 135.142,48.112 
					128.555,39.951 				"/>
			</g>
		</g>
		<g opacity="0.1" clip-path="url(#SVGID_4_)">
			<g>
				<defs>
					<rect id="SVGID_9_" x="133.865" y="53.837" width="2.484" height="0.08"/>
				</defs>
				<clipPath id="SVGID_10_">
					<use xlink:href="#SVGID_9_"  overflow="visible"/>
				</clipPath>
				<polygon clip-path="url(#SVGID_10_)" fill-rule="evenodd" clip-rule="evenodd" points="133.877,53.837 136.338,53.837 
					136.349,53.917 133.865,53.917 				"/>
			</g>
		</g>
		<path clip-path="url(#SVGID_4_)" fill-rule="evenodd" clip-rule="evenodd" fill="#80604A" d="M135.609,29.72
			c-0.28-0.003-0.491,0.41-0.491,0.41s-0.211-0.413-0.491-0.41c-1.155,0.012-5.892,0.478-7.271,2.233c0,0,6.698-0.116,7.065-0.224
			c0.367-0.109,0.697-0.835,0.697-0.835s0.329,0.726,0.697,0.835c0.367,0.108,7.065,0.224,7.065,0.224
			C141.501,30.198,136.764,29.733,135.609,29.72"/>
		<path clip-path="url(#SVGID_4_)" fill-rule="evenodd" clip-rule="evenodd" fill="#FFDECC" d="M75.562,41.925
			c-13.495,5.916-17.543,9.069-19.143,10.486c-2.466,2.182-3.83,10.316-5.284,17.222h30.531h30.53
			c-1.454-6.906-2.818-15.04-5.284-17.222c-1.599-1.416-5.499-4.489-18.995-10.405L75.562,41.925z"/>
		<path clip-path="url(#SVGID_4_)" fill-rule="evenodd" clip-rule="evenodd" fill="#EFA852" d="M75.562,41.925
			c-13.495,5.916-17.543,9.069-19.143,10.486c-2.466,2.182-3.83,10.316-5.284,17.222h30.531h30.53
			c-1.454-6.906-2.818-15.04-5.284-17.222c-1.599-1.416-5.499-4.489-18.995-10.405L75.562,41.925z"/>
		<path clip-path="url(#SVGID_4_)" fill-rule="evenodd" clip-rule="evenodd" fill="#F6D1AF" d="M75.114,30.131v10.015v4.944
			c3.604,4.261,9.5,4.414,13.104,0v-4.944V30.131C88.218,22.054,75.114,22.054,75.114,30.131"/>
		<path clip-path="url(#SVGID_4_)" fill-rule="evenodd" clip-rule="evenodd" fill="#F6D1AF" d="M68.002,20.728
			c1.154-0.381,2.622,0.93,3.279,2.925c0.657,1.996,0.255,3.922-0.9,4.302c-1.154,0.38-2.622-0.929-3.279-2.926
			C66.444,23.033,66.848,21.108,68.002,20.728"/>
		<path clip-path="url(#SVGID_4_)" fill-rule="evenodd" clip-rule="evenodd" fill="#F6D1AF" d="M95.272,20.728
			c-1.155-0.381-2.624,0.93-3.281,2.925c-0.657,1.996-0.253,3.922,0.9,4.302c1.155,0.38,2.623-0.929,3.28-2.926
			C96.829,23.033,96.425,21.108,95.272,20.728"/>
		<g opacity="0.2" clip-path="url(#SVGID_4_)">
			<g>
				<defs>
					<rect id="SVGID_11_" x="75.114" y="37.375" width="13.104" height="4.593"/>
				</defs>
				<clipPath id="SVGID_12_">
					<use xlink:href="#SVGID_11_"  overflow="visible"/>
				</clipPath>
				<path clip-path="url(#SVGID_12_)" d="M75.114,37.375v0.473c0,0,3.347,3.973,6.54,4.117c3.193,0.143,6.564-3.847,6.564-3.847
					v-0.726"/>
			</g>
		</g>
		<path clip-path="url(#SVGID_4_)" fill-rule="evenodd" clip-rule="evenodd" fill="#F6D1AF" d="M81.677,3.275
			c-20.158,0-12.432,27.613-11.115,29.728c1.452,2.333,7.859,7.475,11.115,7.475c3.257,0,9.663-5.142,11.116-7.475
			C94.11,30.888,101.836,3.275,81.677,3.275"/>
		<path clip-path="url(#SVGID_4_)" fill="#343434" d="M90.72,3.92c-6.808-5.357-17.321-2.163-20.495,2.301
			c-3.973,5.587-2.568,14.07-1.627,20.444c-0.001-0.01,0-0.018-0.001-0.028c0.011,0.064,0.024,0.129,0.041,0.198
			c0.014,0.052,0.126,0.199,0.149,0.239c0.033,0.06,0.28-0.005,0.362-0.045c0.03-0.014,0.043-0.053,0.045-0.086
			c0.038-0.562,0.003-1.677,0.002-1.69c-0.075-0.877-0.265-1.721-0.394-2.579c0.637-4.018,2.523-4.863,3.511-9.709
			c0.209-0.324,0.433-0.638,0.667-0.944c0.27-0.351,0.55-0.69,0.876-0.991c0.171-0.104,0.337-0.218,0.496-0.341
			c3.664-1.342,7.441,0.268,10.9,1.679c1.322,0.54,1.518-1.809,2.976-1.922c0.623-0.049,1.912,2.063,2.436,2.001
			c5.192-0.613,3.02,7.258,3.825,10.895c-0.11,0.631-0.229,1.262-0.284,1.911c-0.001,0.013-0.035,1.128,0.003,1.69
			c0.002,0.033,0.015,0.072,0.045,0.086c0.082,0.04,0.329,0.105,0.362,0.045c0.022-0.04,0.135-0.187,0.148-0.239
			c0.062-0.243,0.075-0.447,0.087-0.691c0.042-0.318,0.098-0.658,0.14-1.001C96.041,21.208,97.972,5.61,90.72,3.92 M80.4,9.186
			c-0.113-0.036-0.226-0.068-0.34-0.101c0.168,0.041,0.337,0.085,0.506,0.132C80.511,9.205,80.456,9.196,80.4,9.186"/>
		<g opacity="0.1" clip-path="url(#SVGID_4_)">
			<g>
				<defs>
					<rect id="SVGID_13_" x="80.424" y="53.837" width="2.484" height="0.08"/>
				</defs>
				<clipPath id="SVGID_14_">
					<use xlink:href="#SVGID_13_"  overflow="visible"/>
				</clipPath>
				<polygon clip-path="url(#SVGID_14_)" fill-rule="evenodd" clip-rule="evenodd" points="80.435,53.837 82.896,53.837 
					82.908,53.917 80.424,53.917 				"/>
			</g>
		</g>
		<path clip-path="url(#SVGID_4_)" fill="#343434" d="M85.567,5.784c0,0-5.868-4.087-11.107-1.886
			c-5.239,2.201-9.85,3.039-11.003,1.572c0,0-3.248,6.811,2.829,10.374c6.078,3.563,12.994,0.733,14.985-1.467
			c1.991-2.201,5.239-5.763,7.021-5.03C90.072,10.081,85.567,5.784,85.567,5.784"/>
		<path clip-path="url(#SVGID_4_)" fill-rule="evenodd" clip-rule="evenodd" fill="#FFDECC" d="M45.698,68.96
			c-13.495,5.916-17.543,9.069-19.143,10.486c-2.466,2.182-3.83,10.316-5.284,17.222h30.531h30.53
			c-1.454-6.906-2.818-15.04-5.284-17.222c-1.599-1.416-5.5-4.489-18.995-10.405L45.698,68.96z"/>
		<path clip-path="url(#SVGID_4_)" fill-rule="evenodd" clip-rule="evenodd" fill="#EDEDED" d="M45.697,68.96
			c-13.495,5.916-17.543,9.069-19.143,10.486c-2.466,2.182-3.83,10.316-5.284,17.222h30.531h30.53
			c-1.454-6.906-2.818-15.04-5.284-17.222c-1.599-1.416-5.499-4.489-18.995-10.405L45.697,68.96z"/>
		<path clip-path="url(#SVGID_4_)" fill-rule="evenodd" clip-rule="evenodd" fill="#F6C8AC" d="M45.25,57.166v10.015v4.944
			c3.604,4.261,9.5,4.414,13.104,0v-4.944V57.166C58.354,49.089,45.25,49.089,45.25,57.166"/>
		<path clip-path="url(#SVGID_4_)" fill-rule="evenodd" clip-rule="evenodd" fill="#F6C8AC" d="M38.138,47.763
			c1.154-0.381,2.622,0.93,3.279,2.925c0.657,1.996,0.255,3.922-0.9,4.302c-1.153,0.38-2.622-0.929-3.279-2.926
			C36.58,50.068,36.983,48.143,38.138,47.763"/>
		<path clip-path="url(#SVGID_4_)" fill-rule="evenodd" clip-rule="evenodd" fill="#F6C8AC" d="M65.408,47.763
			c-1.155-0.381-2.624,0.93-3.281,2.925c-0.657,1.996-0.253,3.922,0.9,4.302c1.155,0.38,2.623-0.929,3.28-2.926
			C66.964,50.068,66.561,48.143,65.408,47.763"/>
		<path clip-path="url(#SVGID_4_)" fill-rule="evenodd" clip-rule="evenodd" fill="#343434" d="M51.836,75.378
			c0,0-9.144,2.182-9.144,2.736c0,0.554,3.479,18.553,3.479,18.553h12.414l1.423-18.474L51.836,75.378z"/>
		<polygon clip-path="url(#SVGID_4_)" fill-rule="evenodd" clip-rule="evenodd" fill="#1A1A1A" points="45.25,69.157 45.25,72.125 
			48.096,96.668 43.201,96.668 37.817,85.737 42.957,82.31 36.676,79.374 42.452,70.411 		"/>
		<polygon clip-path="url(#SVGID_4_)" fill-rule="evenodd" clip-rule="evenodd" fill="#1B1B1B" points="58.354,69.172 
			58.354,72.125 55.48,96.668 60.374,96.668 65.758,85.737 60.619,82.31 66.899,79.374 61.766,70.687 		"/>
		<polygon clip-path="url(#SVGID_4_)" fill-rule="evenodd" clip-rule="evenodd" fill="#6AD17F" points="48.984,78.413 
			50.571,80.872 53.032,80.872 54.62,78.413 51.836,75.379 		"/>
		<polygon clip-path="url(#SVGID_4_)" fill-rule="evenodd" clip-rule="evenodd" fill="#6AD17F" points="50.571,80.872 
			48.312,96.668 55.292,96.668 53.032,80.872 		"/>
		<polygon clip-path="url(#SVGID_4_)" fill-rule="evenodd" clip-rule="evenodd" fill="#343434" points="45.25,67.181 44.677,69.41 
			46.28,81.013 51.836,75.378 		"/>
		<g opacity="0.2" clip-path="url(#SVGID_4_)">
			<g>
				<defs>
					<rect id="SVGID_15_" x="45.25" y="64.41" width="13.104" height="4.593"/>
				</defs>
				<clipPath id="SVGID_16_">
					<use xlink:href="#SVGID_15_"  overflow="visible"/>
				</clipPath>
				<path clip-path="url(#SVGID_16_)" d="M45.25,64.41v0.473c0,0,3.347,3.973,6.54,4.117c3.193,0.143,6.564-3.847,6.564-3.847
					v-0.726"/>
			</g>
		</g>
		<path clip-path="url(#SVGID_4_)" fill-rule="evenodd" clip-rule="evenodd" fill="#F6C8AC" d="M51.812,30.311
			c-20.158,0-12.432,27.613-11.115,29.728c1.452,2.333,7.859,7.475,11.115,7.475c3.257,0,9.663-5.142,11.116-7.475
			C64.246,57.923,71.972,30.311,51.812,30.311"/>
		<polygon clip-path="url(#SVGID_4_)" fill-rule="evenodd" clip-rule="evenodd" fill="#343434" points="58.354,67.181 
			58.806,69.373 57.3,81.129 51.836,75.378 		"/>
		<g opacity="0.05" clip-path="url(#SVGID_4_)">
			<g>
				<defs>
					<rect id="SVGID_17_" x="45.25" y="66.986" width="13.104" height="8.392"/>
				</defs>
				<clipPath id="SVGID_18_">
					<use xlink:href="#SVGID_17_"  overflow="visible"/>
				</clipPath>
				<polygon clip-path="url(#SVGID_18_)" points="45.25,67.181 51.836,75.378 58.354,67.181 58.354,66.986 51.836,75.147 
					45.25,66.986 				"/>
			</g>
		</g>
		<g opacity="0.1" clip-path="url(#SVGID_4_)">
			<g>
				<defs>
					<rect id="SVGID_19_" x="50.559" y="80.872" width="2.484" height="0.08"/>
				</defs>
				<clipPath id="SVGID_20_">
					<use xlink:href="#SVGID_19_"  overflow="visible"/>
				</clipPath>
				<polygon clip-path="url(#SVGID_20_)" fill-rule="evenodd" clip-rule="evenodd" points="50.571,80.872 53.032,80.872 
					53.043,80.952 50.559,80.952 				"/>
			</g>
		</g>
		<path clip-path="url(#SVGID_4_)" fill="#605343" d="M64.923,50.746c-0.102,0.377-0.207,0.711-0.207,0.711
			s-1.808,6.153-3.353,8.059c-2.992,3.69-6.896,5.976-9.557,5.991c-2.615,0.015-6.468-2.061-9.492-5.67
			c-1.196-1.428-3.393-7.856-3.429-8.381c-0.023-0.327-0.102-0.655-0.172-0.982c-0.404-0.012-0.417,2.729-0.417,2.729
			c0.61,3.192,1.041,5.296,2.294,7.048c2.002,2.798,7.654,7.222,11.085,7.222c3.433,0,9.084-4.423,11.085-7.222
			c1.263-1.767,1.609-4.118,2.304-7.433C65.065,52.819,65.236,50.772,64.923,50.746"/>
		<path clip-path="url(#SVGID_4_)" fill-rule="evenodd" clip-rule="evenodd" fill="#605343" d="M57.994,58.996
			c-0.465-0.981-4.226-2.309-4.901-2.558c-0.677-0.249-1.156,0.618-1.156,0.618s-0.479-0.867-1.156-0.618
			c-0.676,0.249-4.437,1.577-4.902,2.558c-0.464,0.981-0.691,1.661-0.691,2.334v3.063c0,0,0.666,0.043,1.05-0.248
			c0.384-0.29,0.822-1.115,0.822-2.142c0-1.027,0.755-1.853,1.671-2.039c0.968-0.196,3.205-0.57,3.205-1.178
			c0,0.608,2.393,1.03,3.205,1.178c0.92,0.168,1.672,1.012,1.672,2.039c0,1.027,0.437,1.852,0.821,2.142
			c0.385,0.291,1.05,0.248,1.05,0.248V61.33C58.685,60.657,58.459,59.977,57.994,58.996"/>
		<path clip-path="url(#SVGID_4_)" fill-rule="evenodd" clip-rule="evenodd" fill="#333333" d="M58.215,54.914
			c0.113-0.003,0.23-0.01,0.351-0.02c3.279-0.274,4.087-1.748,4.455-3.609c0.406-2.045,0.432-2.756,0.96-2.943
			c0.386-0.139,0.481-0.596,0.47-1.129c-0.014-0.53-0.031-0.588-0.671-0.81c-0.506-0.177-3.306-0.43-5.406-0.298l-0.009,0.55
			c1.655-0.09,3.251,0.109,3.713,0.408c1.053,0.682,0.746,3.972-0.142,5.602c-0.616,1.132-2.245,1.707-3.713,1.732L58.215,54.914z
			 M52.087,47.181c-0.724,0.017-3.686-0.837-5.792-1.019c-0.15-0.014-0.303-0.025-0.461-0.034l-0.008,0.551
			c1.712,0.078,3.485,0.466,4.092,1.38c0.997,1.5-0.794,5.167-2.413,5.984c-0.492,0.248-1.141,0.376-1.822,0.383l-0.01,0.519
			c2.836,0.004,3.884-2.04,4.234-2.723c0.659-1.284,0.523-3.054,2.146-3.057c1.621-0.004,1.409,1.734,1.988,3.016
			c0.312,0.692,1.233,2.815,4.175,2.732l0.008-0.517c-0.726,0.011-1.416-0.114-1.922-0.374c-1.569-0.809-3.139-4.468-2.049-5.972
			c0.656-0.908,2.415-1.305,4.112-1.397l0.009-0.55c-0.13,0.007-0.258,0.016-0.382,0.028C56.094,46.306,53.793,47.136,52.087,47.181
			 M45.834,46.128c-2.08-0.111-4.836,0.151-5.344,0.326c-0.654,0.226-0.674,0.284-0.721,0.816c-0.045,0.531,0.025,0.989,0.4,1.125
			c0.516,0.186,0.499,0.898,0.782,2.94c0.254,1.859,0.971,3.328,4.236,3.588c0.167,0.014,0.329,0.02,0.486,0.022l0.01-0.519
			c-1.5,0.012-3.168-0.555-3.73-1.715c-0.788-1.627-0.898-4.915,0.2-5.604c0.474-0.297,2.046-0.503,3.673-0.428L45.834,46.128z"/>
		<path clip-path="url(#SVGID_4_)" fill-rule="evenodd" clip-rule="evenodd" fill="#F2CB7E" d="M26.403,63.634
			c1.24-2.284,11.127-4.298,15.159,3.822c4.034,8.12,2.002,10.964,4.226,13.83c2.226,2.866-3.022,25.052-15.447,24.98
			C17.06,106.189,14.163,84.969,16.805,80.67C19.449,76.372,17.139,63.628,26.403,63.634"/>
		<path clip-path="url(#SVGID_4_)" fill-rule="evenodd" clip-rule="evenodd" fill="#7491A0" d="M36.149,101.398
			c-0.113,0.176-11.177,0.353-11.299,0.528c-3.474,4.956-10.982,5.871-16.952,7.206c-5.941,1.328-6.17,8.875-6.18,13.901h57.917
			c-0.009-5.026-0.12-12.545-6.181-13.901C47.393,107.776,39.445,106.58,36.149,101.398"/>
		<path clip-path="url(#SVGID_4_)" fill-rule="evenodd" clip-rule="evenodd" fill="#FFFFFF" d="M36.486,101.889v2.729l-2.826,18.415
			h-6.023l-2.801-18.217v-2.867c0.006-0.006,0.009-0.016,0.016-0.022c0.123-0.176,11.185-0.352,11.298-0.528
			C36.256,101.565,36.366,101.729,36.486,101.889"/>
		<path clip-path="url(#SVGID_4_)" fill-rule="evenodd" clip-rule="evenodd" fill="#F6DBC2" d="M24.874,89.553v9.519v4.698
			c2.907,5.948,8.127,6.102,11.605,0v-4.698v-9.519C36.479,81.877,24.874,81.877,24.874,89.553"/>
		<path clip-path="url(#SVGID_4_)" fill-rule="evenodd" clip-rule="evenodd" fill="#F6DBC2" d="M45.983,82.915
			c-1.16-0.522-2.797,0.759-3.657,2.86c-0.861,2.102-0.62,4.229,0.539,4.751c1.159,0.522,2.798-0.758,3.658-2.86
			C47.384,85.565,47.142,83.438,45.983,82.915"/>
		<path clip-path="url(#SVGID_4_)" fill-rule="evenodd" clip-rule="evenodd" fill="#F6DBC2" d="M15.38,82.915
			c1.159-0.522,2.797,0.758,3.658,2.86c0.86,2.102,0.619,4.229-0.541,4.751c-1.159,0.522-2.797-0.758-3.658-2.86
			C13.98,85.565,14.222,83.438,15.38,82.915"/>
		<g opacity="0.2" clip-path="url(#SVGID_4_)">
			<g>
				<defs>
					<rect id="SVGID_21_" x="24.874" y="96.625" width="11.605" height="4.032"/>
				</defs>
				<clipPath id="SVGID_22_">
					<use xlink:href="#SVGID_21_"  overflow="visible"/>
				</clipPath>
				<path clip-path="url(#SVGID_22_)" fill-rule="evenodd" clip-rule="evenodd" d="M24.874,96.625v0.396
					c0,0,3.641,3.636,5.748,3.636c2.107,0,5.857-3.676,5.857-3.676v-0.355H24.874z"/>
			</g>
		</g>
		<path clip-path="url(#SVGID_4_)" fill-rule="evenodd" clip-rule="evenodd" fill="#F6DBC2" d="M30.688,99.387
			c-3.604,0-11.216-5.94-13.569-14.446c-2.377-8.59,2.099-20.911,13.569-20.911c11.469,0,15.946,12.321,13.568,20.911
			C41.902,93.447,34.291,99.387,30.688,99.387"/>
		<path clip-path="url(#SVGID_4_)" fill-rule="evenodd" clip-rule="evenodd" fill="#F2CB7E" d="M33.019,74.682
			c2.814,5.901,3.957,7.643,7.699,6.085c3.742-1.557,3.032,2.809,2.351,5.924c3.314-4.207,2.925-8.203,1.894-12.265
			c-1.13-4.452-6.827-11.224-12.171-11.099c-2.904-0.305-7.298,0.055-11.973,3.425c-8.163,5.884-5.437,19.102-3.238,20.661
			c-2.13-12.243,3.085-9.751,6.684-16.155C25.447,68.441,29.961,68.268,33.019,74.682"/>
		<polygon clip-path="url(#SVGID_4_)" fill-rule="evenodd" clip-rule="evenodd" fill="#EDEDED" points="27.684,123.027 
			22.789,123.027 22.453,123.033 17.404,118.427 22.544,115.001 16.263,112.062 20.422,105.605 22.038,103.099 24.836,101.845 
			24.836,104.816 27.637,123.033 		"/>
		<polygon clip-path="url(#SVGID_4_)" fill-rule="evenodd" clip-rule="evenodd" fill="#EDEDED" points="38.752,114.803 
			43.889,118.229 38.831,123.033 38.507,123.027 33.613,123.027 33.66,123.033 36.486,104.618 36.486,101.666 39.9,103.181 
			41.406,105.734 45.03,111.867 		"/>
		<path clip-path="url(#SVGID_4_)" fill-rule="evenodd" clip-rule="evenodd" fill="#605343" d="M148.998,36.022
			c0.682-2.284,6.116-4.298,8.333,3.822c2.218,8.12,1.101,10.964,2.323,13.83c1.224,2.866-1.661,25.052-8.492,24.98
			c-7.302-0.077-8.894-21.297-7.441-25.596C145.175,48.761,143.905,36.017,148.998,36.022"/>
		<path clip-path="url(#SVGID_4_)" fill-rule="evenodd" clip-rule="evenodd" fill="#605343" d="M173.028,36.022
			c-0.682-2.284-6.116-4.298-8.333,3.822c-2.218,8.12-1.101,10.964-2.323,13.83c-1.224,2.866,1.661,25.052,8.492,24.98
			c7.302-0.077,8.894-21.297,7.441-25.596C176.851,48.761,178.12,36.017,173.028,36.022"/>
		<path clip-path="url(#SVGID_4_)" fill-rule="evenodd" clip-rule="evenodd" fill="#EFA852" d="M166.924,69.333
			c-0.113,0.176-11.177,0.353-11.299,0.528c-3.474,4.956-10.982,5.871-16.952,7.206c-5.94,1.328-6.17,8.875-6.18,13.901h57.917
			c-0.009-5.026-0.12-12.545-6.181-13.901C178.168,75.711,170.22,74.515,166.924,69.333"/>
		<path clip-path="url(#SVGID_4_)" fill-rule="evenodd" clip-rule="evenodd" fill="#F4F4F4" d="M167.26,69.824v2.729l-2.826,18.415
			h-6.023l-2.801-18.217v-2.867c0.006-0.006,0.009-0.016,0.016-0.022c0.123-0.176,11.185-0.352,11.298-0.528
			C167.031,69.5,167.141,69.664,167.26,69.824"/>
		<path clip-path="url(#SVGID_4_)" fill-rule="evenodd" clip-rule="evenodd" fill="#F6DCB9" d="M155.648,57.488v9.519v4.698
			c2.907,5.948,8.127,6.102,11.605,0v-4.698v-9.519C167.253,49.813,155.648,49.813,155.648,57.488"/>
		<path clip-path="url(#SVGID_4_)" fill-rule="evenodd" clip-rule="evenodd" fill="#F6DCB9" d="M176.757,50.851
			c-1.159-0.522-2.797,0.759-3.657,2.86c-0.861,2.102-0.62,4.229,0.539,4.751c1.16,0.522,2.798-0.758,3.658-2.86
			C178.158,53.5,177.917,51.373,176.757,50.851"/>
		<path clip-path="url(#SVGID_4_)" fill-rule="evenodd" clip-rule="evenodd" fill="#F6DCB9" d="M146.155,50.851
			c1.159-0.522,2.796,0.758,3.658,2.86c0.86,2.102,0.619,4.229-0.541,4.751c-1.159,0.522-2.797-0.758-3.658-2.86
			C144.754,53.5,144.996,51.373,146.155,50.851"/>
		<g opacity="0.2" clip-path="url(#SVGID_4_)">
			<g>
				<defs>
					<rect id="SVGID_23_" x="155.648" y="64.56" width="11.605" height="4.032"/>
				</defs>
				<clipPath id="SVGID_24_">
					<use xlink:href="#SVGID_23_"  overflow="visible"/>
				</clipPath>
				<path clip-path="url(#SVGID_24_)" fill-rule="evenodd" clip-rule="evenodd" d="M155.648,64.56v0.396
					c0,0,3.641,3.636,5.748,3.636c2.107,0,5.857-3.676,5.857-3.676V64.56H155.648z"/>
			</g>
		</g>
		<path clip-path="url(#SVGID_4_)" fill-rule="evenodd" clip-rule="evenodd" fill="#F6DCB9" d="M161.462,67.322
			c-3.604,0-11.216-5.94-13.569-14.446c-2.377-8.59,2.099-20.911,13.569-20.911c11.469,0,15.946,12.321,13.568,20.911
			C172.677,61.382,165.065,67.322,161.462,67.322"/>
		<path clip-path="url(#SVGID_4_)" fill-rule="evenodd" clip-rule="evenodd" fill="#605343" d="M175.738,42.361
			c-1.13-4.452-6.827-11.224-12.171-11.099c-0.77-0.081-1.646-0.112-2.603-0.056c-0.957-0.056-1.833-0.025-2.603,0.056
			c-5.344-0.124-11.041,6.648-12.171,11.099c-0.908,3.579-1.317,7.106,0.865,10.772c0.393,1.106,0.856,1.9,1.299,2.214
			c-0.49-2.816-0.59-4.851-0.412-6.395c0.409-0.61,1.173-0.799,2.493-0.25c3.742,1.558,4.884-0.184,7.699-6.085
			c0.863-1.81,1.527-3.945,2.83-3.945c1.302,0,1.967,2.135,2.83,3.945c2.814,5.901,3.957,7.643,7.699,6.085
			c1.32-0.549,2.084-0.36,2.493,0.25c0.178,1.544,0.078,3.58-0.412,6.395c0.443-0.314,0.907-1.108,1.299-2.214
			C177.054,49.468,176.646,45.94,175.738,42.361"/>
		<polygon clip-path="url(#SVGID_4_)" fill-rule="evenodd" clip-rule="evenodd" fill="#EDEDED" points="158.458,90.962 
			153.564,90.962 153.227,90.968 148.178,86.363 153.318,82.936 147.038,79.997 151.196,73.54 152.812,71.034 155.61,69.78 
			155.61,72.751 158.411,90.968 		"/>
		<polygon clip-path="url(#SVGID_4_)" fill-rule="evenodd" clip-rule="evenodd" fill="#EDEDED" points="169.527,82.738 
			174.663,86.165 169.605,90.968 169.282,90.962 164.387,90.962 164.434,90.968 167.26,72.553 167.26,69.601 170.674,71.116 
			172.18,73.669 175.805,79.802 		"/>
		<path clip-path="url(#SVGID_4_)" fill-rule="evenodd" clip-rule="evenodd" fill="#DBDBDB" d="M181.648,95.367
			c-13.495,5.916-17.543,9.069-19.143,10.486c-2.466,2.182-3.83,10.316-5.284,17.222h30.531h30.53
			c-1.454-6.906-2.818-15.04-5.284-17.222c-1.599-1.416-5.5-4.489-18.995-10.405L181.648,95.367z"/>
		<path clip-path="url(#SVGID_4_)" fill-rule="evenodd" clip-rule="evenodd" fill="#DBB18A" d="M181.2,83.573v10.015v4.944
			c3.604,4.261,9.5,4.414,13.104,0v-4.944V83.573C194.304,75.496,181.2,75.496,181.2,83.573"/>
		<path clip-path="url(#SVGID_4_)" fill-rule="evenodd" clip-rule="evenodd" fill="#F6D1AF" d="M174.088,74.169
			c1.154-0.381,2.622,0.93,3.279,2.925c0.657,1.996,0.255,3.922-0.9,4.302c-1.154,0.38-2.622-0.929-3.279-2.926
			C172.53,76.475,172.934,74.549,174.088,74.169"/>
		<path clip-path="url(#SVGID_4_)" fill-rule="evenodd" clip-rule="evenodd" fill="#F6D1AF" d="M201.358,74.169
			c-1.155-0.381-2.624,0.93-3.281,2.925c-0.657,1.996-0.253,3.922,0.9,4.302c1.155,0.38,2.623-0.929,3.28-2.926
			C202.915,76.475,202.511,74.549,201.358,74.169"/>
		<polygon clip-path="url(#SVGID_4_)" fill-rule="evenodd" clip-rule="evenodd" fill="#343434" points="184.934,104.82 
			186.521,107.278 188.982,107.278 190.57,104.82 187.786,101.785 		"/>
		<polygon clip-path="url(#SVGID_4_)" fill-rule="evenodd" clip-rule="evenodd" fill="#343434" points="186.521,107.278 
			184.262,123.074 191.242,123.074 188.982,107.278 		"/>
		<polygon clip-path="url(#SVGID_4_)" fill-rule="evenodd" clip-rule="evenodd" fill="#EDEDED" points="181.2,93.588 
			180.627,95.817 182.23,107.42 187.786,101.785 		"/>
		<g opacity="0.2" clip-path="url(#SVGID_4_)">
			<g>
				<defs>
					<rect id="SVGID_25_" x="181.2" y="90.817" width="13.104" height="4.593"/>
				</defs>
				<clipPath id="SVGID_26_">
					<use xlink:href="#SVGID_25_"  overflow="visible"/>
				</clipPath>
				<path clip-path="url(#SVGID_26_)" d="M181.2,90.817v0.473c0,0,3.347,3.973,6.54,4.117c3.193,0.143,6.564-3.847,6.564-3.847
					v-0.726"/>
			</g>
		</g>
		<path clip-path="url(#SVGID_4_)" fill-rule="evenodd" clip-rule="evenodd" fill="#DBB18A" d="M187.763,56.717
			c-20.158,0-12.432,27.613-11.115,29.728c1.452,2.333,7.859,7.475,11.115,7.475c3.257,0,9.663-5.142,11.116-7.475
			C200.196,84.33,207.922,56.717,187.763,56.717"/>
		<path clip-path="url(#SVGID_4_)" fill="#343434" d="M178.969,57.362c6.808-5.357,20.231-4.592,23.406-0.127
			c-1.281,4.488-0.343,16.498-1.284,22.872c0-0.01,0-0.018,0.001-0.028c-0.011,0.064-0.024,0.129-0.041,0.198
			c-0.014,0.052-0.127,0.199-0.149,0.239c-0.033,0.06-0.279-0.005-0.362-0.045c-0.03-0.014-0.043-0.053-0.045-0.086
			c-0.038-0.562-0.003-1.677-0.003-1.69c0.075-0.877,0.265-1.721,0.394-2.579c-0.637-4.018-2.523-4.863-3.511-9.709
			c-0.209-0.324-0.433-0.638-0.668-0.944c-0.27-0.351-0.55-0.69-0.876-0.991c-0.171-0.104-0.337-0.218-0.496-0.342
			c-3.664-1.342-3.543-0.345-7.002,1.067c-1.323,0.54-5.039,1.581-6.497,1.467c-0.623-0.048-2.768-0.25-2.814-0.776
			c-2.74,4.234-3.02,7.258-3.825,10.895c0.11,0.631,0.229,1.262,0.284,1.911c0.002,0.013,0.035,1.128-0.002,1.69
			c-0.002,0.033-0.015,0.072-0.045,0.086c-0.082,0.04-0.329,0.105-0.362,0.045c-0.022-0.04-0.135-0.187-0.149-0.239
			c-0.062-0.243-0.075-0.447-0.087-0.691c-0.042-0.318-0.098-0.658-0.14-1.001C173.647,74.65,171.716,59.052,178.969,57.362
			 M189.288,62.627c0.113-0.036,0.226-0.068,0.34-0.101c-0.168,0.041-0.337,0.085-0.505,0.132
			C189.177,62.647,189.232,62.637,189.288,62.627"/>
		<polygon clip-path="url(#SVGID_4_)" fill-rule="evenodd" clip-rule="evenodd" fill="#EDEDED" points="194.304,93.588 
			194.756,95.78 193.25,107.536 187.786,101.785 		"/>
		<g opacity="0.05" clip-path="url(#SVGID_4_)">
			<g>
				<defs>
					<rect id="SVGID_27_" x="181.2" y="93.393" width="13.104" height="8.392"/>
				</defs>
				<clipPath id="SVGID_28_">
					<use xlink:href="#SVGID_27_"  overflow="visible"/>
				</clipPath>
				<polygon clip-path="url(#SVGID_28_)" points="181.2,93.588 187.786,101.785 194.304,93.588 194.304,93.393 187.786,101.553 
					181.2,93.393 				"/>
			</g>
		</g>
		<g opacity="0.1" clip-path="url(#SVGID_4_)">
			<g>
				<defs>
					<rect id="SVGID_29_" x="186.51" y="107.279" width="2.484" height="0.08"/>
				</defs>
				<clipPath id="SVGID_30_">
					<use xlink:href="#SVGID_29_"  overflow="visible"/>
				</clipPath>
				<polygon clip-path="url(#SVGID_30_)" fill-rule="evenodd" clip-rule="evenodd" points="186.521,107.278 188.982,107.278 
					188.994,107.359 186.51,107.359 				"/>
			</g>
		</g>
		<path clip-path="url(#SVGID_4_)" fill-rule="evenodd" clip-rule="evenodd" fill="#FFDECC" d="M101.8,70.218
			c-13.495,5.916-17.543,9.069-19.143,10.486c-2.466,2.182-3.83,10.316-5.284,17.222h30.531h30.53
			c-1.454-6.906-2.818-15.04-5.284-17.222c-1.599-1.416-5.5-4.489-18.995-10.405L101.8,70.218z"/>
		<path clip-path="url(#SVGID_4_)" fill-rule="evenodd" clip-rule="evenodd" fill="#7491A0" d="M101.8,70.218
			c-13.495,5.916-17.543,9.069-19.143,10.486c-2.466,2.182-3.83,10.316-5.284,17.222h30.531h30.53
			c-1.454-6.906-2.818-15.04-5.284-17.222c-1.599-1.416-5.5-4.489-18.995-10.405L101.8,70.218z"/>
		<path clip-path="url(#SVGID_4_)" fill-rule="evenodd" clip-rule="evenodd" fill="#F6D9C7" d="M101.352,58.424v10.015v4.944
			c3.604,4.261,9.5,4.414,13.104,0v-4.944V58.424C114.457,50.347,101.352,50.347,101.352,58.424"/>
		<path clip-path="url(#SVGID_4_)" fill-rule="evenodd" clip-rule="evenodd" fill="#F6D9C7" d="M94.24,49.021
			c1.154-0.381,2.622,0.93,3.279,2.925c0.657,1.996,0.255,3.922-0.9,4.302c-1.154,0.38-2.622-0.929-3.279-2.926
			C92.683,51.326,93.086,49.401,94.24,49.021"/>
		<path clip-path="url(#SVGID_4_)" fill-rule="evenodd" clip-rule="evenodd" fill="#F6D9C7" d="M121.51,49.021
			c-1.155-0.381-2.624,0.93-3.28,2.925c-0.658,1.996-0.254,3.922,0.899,4.302c1.155,0.38,2.624-0.929,3.28-2.926
			C123.067,51.326,122.664,49.401,121.51,49.021"/>
		<polygon clip-path="url(#SVGID_4_)" fill-rule="evenodd" clip-rule="evenodd" fill="#343434" points="105.086,79.671 
			106.674,82.13 109.134,82.13 110.722,79.671 107.938,76.637 		"/>
		<polygon clip-path="url(#SVGID_4_)" fill-rule="evenodd" clip-rule="evenodd" fill="#343434" points="106.673,82.13 
			104.414,97.926 111.394,97.926 109.134,82.13 		"/>
		<polygon clip-path="url(#SVGID_4_)" fill-rule="evenodd" clip-rule="evenodd" fill="#EDEDED" points="101.352,68.439 
			100.779,70.668 102.382,82.271 107.938,76.636 		"/>
		<g opacity="0.2" clip-path="url(#SVGID_4_)">
			<g>
				<defs>
					<rect id="SVGID_31_" x="101.352" y="65.668" width="13.104" height="4.593"/>
				</defs>
				<clipPath id="SVGID_32_">
					<use xlink:href="#SVGID_31_"  overflow="visible"/>
				</clipPath>
				<path clip-path="url(#SVGID_32_)" d="M101.352,65.668v0.473c0,0,3.348,3.973,6.54,4.117s6.564-3.847,6.564-3.847v-0.726"/>
			</g>
		</g>
		<path clip-path="url(#SVGID_4_)" fill-rule="evenodd" clip-rule="evenodd" fill="#F6D9C7" d="M107.915,31.569
			c-20.158,0-12.432,27.613-11.115,29.728c1.452,2.333,7.859,7.475,11.115,7.475c3.257,0,9.663-5.142,11.116-7.475
			C120.348,59.181,128.074,31.569,107.915,31.569"/>
		<path clip-path="url(#SVGID_4_)" fill="#F2CB7E" d="M117.211,32.214c-6.945-6.126-20.546,1.696-23.72,6.161
			c1.281,4.488,0.658,10.21,1.598,16.584c0-0.01,0-0.018-0.001-0.028c0.011,0.064,0.024,0.129,0.041,0.198
			c0.014,0.052,0.127,0.199,0.149,0.239c0.033,0.06,0.28-0.005,0.362-0.045c0.03-0.014,0.043-0.053,0.044-0.086
			c0.038-0.562,0.004-1.677,0.003-1.69c-0.074-0.877,0.05-1.768-0.078-2.625c0.637-4.018,0.123-4.187,2.318-8.199
			c0.185-0.338,1.36-1.71,1.519-1.834c3.664-1.342,4.941,0.894,8.399,2.306c1.323,0.54,3.314,0.576,4.778,0.576
			c2.279,0,4.488-2.503,4.533-3.029c2.74,4.234,3.02,7.258,3.825,10.895c-0.11,0.631-0.229,1.262-0.284,1.911
			c-0.002,0.013-0.036,1.128,0.002,1.69c0.002,0.033,0.015,0.072,0.045,0.086c0.082,0.04,0.329,0.105,0.362,0.045
			c0.022-0.04,0.135-0.187,0.149-0.239c0.062-0.243,0.075-0.447,0.087-0.691c0.042-0.318,0.097-0.658,0.14-1.001
			C122.533,49.501,124.464,33.903,117.211,32.214 M106.893,37.479c-0.113-0.036-0.227-0.068-0.34-0.101
			c0.168,0.041,0.336,0.085,0.505,0.132C107.003,37.498,106.948,37.489,106.893,37.479"/>
		<path clip-path="url(#SVGID_4_)" fill="#605343" d="M42.373,29.21c7.115-6.126,21.049,1.696,24.301,6.161
			c-1.312,4.488-0.674,10.21-1.637,16.584c0-0.01,0-0.018,0.001-0.028c-0.011,0.064-0.025,0.129-0.042,0.198
			c-0.014,0.052-0.13,0.199-0.153,0.239c-0.034,0.06-0.286-0.005-0.37-0.045c-0.03-0.014-0.044-0.053-0.046-0.086
			c-0.039-0.562-0.004-1.677-0.003-1.69c0.076-0.877-0.052-1.768,0.08-2.625c-0.653-4.018-0.126-4.187-2.375-8.199
			c-0.19-0.338-1.394-1.71-1.557-1.834c-3.754-1.342-5.062,0.894-8.605,2.306c-1.355,0.54-3.396,0.576-4.895,0.576
			c-2.335,0-4.598-2.503-4.645-3.029c-2.807,4.234-3.094,7.258-3.918,10.895c0.113,0.631,0.235,1.262,0.29,1.911
			c0.002,0.013,0.036,1.128-0.002,1.69c-0.002,0.033-0.016,0.072-0.046,0.086c-0.084,0.04-0.337,0.105-0.371,0.045
			c-0.022-0.04-0.139-0.187-0.153-0.239c-0.063-0.243-0.076-0.447-0.089-0.691c-0.043-0.318-0.1-0.658-0.143-1.001
			C36.921,46.497,34.943,30.899,42.373,29.21 M52.945,34.475c0.117-0.036,0.232-0.068,0.348-0.101
			c-0.172,0.041-0.345,0.085-0.518,0.132C52.831,34.494,52.888,34.485,52.945,34.475"/>
		<polygon clip-path="url(#SVGID_4_)" fill-rule="evenodd" clip-rule="evenodd" fill="#EDEDED" points="114.456,68.439 
			114.908,70.631 113.402,82.387 107.938,76.636 		"/>
		<g opacity="0.05" clip-path="url(#SVGID_4_)">
			<g>
				<defs>
					<rect id="SVGID_33_" x="101.352" y="68.244" width="13.104" height="8.392"/>
				</defs>
				<clipPath id="SVGID_34_">
					<use xlink:href="#SVGID_33_"  overflow="visible"/>
				</clipPath>
				<polygon clip-path="url(#SVGID_34_)" points="101.352,68.439 107.938,76.636 114.457,68.439 114.457,68.244 107.938,76.405 
					101.352,68.244 				"/>
			</g>
		</g>
		<g opacity="0.1" clip-path="url(#SVGID_4_)">
			<g>
				<defs>
					<rect id="SVGID_35_" x="106.662" y="82.13" width="2.484" height="0.08"/>
				</defs>
				<clipPath id="SVGID_36_">
					<use xlink:href="#SVGID_35_"  overflow="visible"/>
				</clipPath>
				<polygon clip-path="url(#SVGID_36_)" fill-rule="evenodd" clip-rule="evenodd" points="106.673,82.13 109.134,82.13 
					109.146,82.21 106.662,82.21 				"/>
			</g>
		</g>
		<path clip-path="url(#SVGID_4_)" fill-rule="evenodd" clip-rule="evenodd" fill="#806049" d="M143.555,73.24
			c1.429-2.482,12.816-4.671,17.462,4.154c4.647,8.825,2.306,11.917,4.868,15.031c2.564,3.115,0.151,10.263-1.63,10.889
			c-1.781,0.626-1.067,3.099-0.197,4.161c3.707,4.534-1.653,12.177-15.965,12.099c-15.299-0.084-18.301-8.973-14.379-11.745
			c1.279-0.905,1.775-2.642,0.374-4.171c-1.401-1.53-4.631-7.23-1.587-11.903C135.545,87.084,132.884,73.233,143.555,73.24"/>
		<path clip-path="url(#SVGID_4_)" fill-rule="evenodd" clip-rule="evenodd" fill="#6AD17F" d="M154.349,109.571
			c-0.113,0.176-11.177,0.353-11.299,0.528c-3.474,4.956-10.982,7.128-16.952,8.463c-5.94,1.328-6.17,8.875-6.18,13.901h57.917
			c-0.009-5.026,0.008-13.382-6.181-13.901C164.18,117.935,156.52,115.333,154.349,109.571"/>
		<path clip-path="url(#SVGID_4_)" fill-rule="evenodd" clip-rule="evenodd" fill="#F5D5C1" d="M143.074,98.984v9.519v4.698
			c2.907,5.948,8.127,6.102,11.605,0v-4.698v-9.519C154.679,91.308,143.074,91.308,143.074,98.984"/>
		<path clip-path="url(#SVGID_4_)" fill-rule="evenodd" clip-rule="evenodd" fill="#F5D5C1" d="M164.183,92.346
			c-1.159-0.522-2.797,0.759-3.657,2.86c-0.861,2.102-0.62,4.229,0.539,4.751c1.16,0.522,2.798-0.758,3.658-2.86
			C165.584,94.995,165.342,92.869,164.183,92.346"/>
		<path clip-path="url(#SVGID_4_)" fill-rule="evenodd" clip-rule="evenodd" fill="#F5D5C1" d="M133.58,92.346
			c1.159-0.522,2.796,0.758,3.658,2.86c0.86,2.102,0.619,4.229-0.541,4.751c-1.159,0.522-2.797-0.758-3.658-2.86
			C132.179,94.995,132.422,92.869,133.58,92.346"/>
		<g opacity="0.2" clip-path="url(#SVGID_4_)">
			<g>
				<defs>
					<rect id="SVGID_37_" x="143.074" y="106.055" width="11.605" height="4.032"/>
				</defs>
				<clipPath id="SVGID_38_">
					<use xlink:href="#SVGID_37_"  overflow="visible"/>
				</clipPath>
				<path clip-path="url(#SVGID_38_)" fill-rule="evenodd" clip-rule="evenodd" d="M143.074,106.055v0.396
					c0,0,3.641,3.636,5.748,3.636c2.107,0,5.857-3.676,5.857-3.676v-0.355H143.074z"/>
			</g>
		</g>
		<path clip-path="url(#SVGID_4_)" fill-rule="evenodd" clip-rule="evenodd" fill="#F5D5C1" d="M148.888,108.818
			c-3.604,0-11.216-5.94-13.569-14.446c-2.377-8.59,2.099-20.911,13.569-20.911c11.469,0,15.946,12.321,13.568,20.911
			C160.102,102.878,152.49,108.818,148.888,108.818"/>
		<path clip-path="url(#SVGID_4_)" fill-rule="evenodd" clip-rule="evenodd" fill="#80604A" d="M146.188,84.113
			c-2.814,5.901-3.957,7.643-7.699,6.085c-3.742-1.557-3.032,2.809-2.351,5.924c-3.314-4.207-2.924-8.203-1.894-12.264
			c1.13-4.452,6.827-11.224,12.171-11.099c2.904-0.305,7.298,0.055,11.973,3.425c8.164,5.884,5.437,19.102,3.239,20.661
			c2.13-12.243-3.085-9.751-6.684-16.155C153.761,77.872,149.247,77.698,146.188,84.113"/>
		
			<rect x="148.118" y="117.781" clip-path="url(#SVGID_4_)" fill-rule="evenodd" clip-rule="evenodd" fill="#FFFFFF" width="1.19" height="14.682"/>
		<polygon clip-path="url(#SVGID_4_)" fill-rule="evenodd" clip-rule="evenodd" fill="#FFFFFF" points="143.074,110.087 
			138.932,113.873 144.199,122.046 148.745,117.734 		"/>
		<polygon clip-path="url(#SVGID_4_)" fill-rule="evenodd" clip-rule="evenodd" fill="#FFFFFF" points="154.679,110.059 
			158.82,114.005 153.29,122.046 148.745,117.734 		"/>
		<path clip-path="url(#SVGID_4_)" fill-rule="evenodd" clip-rule="evenodd" fill="#605343" d="M155.178,98.802
			c0.113-0.003,0.231-0.01,0.352-0.02c3.293-0.275,4.105-1.755,4.474-3.624c0.407-2.053,0.434-2.767,0.964-2.956
			c0.388-0.14,0.483-0.599,0.472-1.134c-0.014-0.533-0.031-0.591-0.673-0.813c-0.508-0.178-3.32-0.433-5.43-0.3l-0.009,0.553
			c1.662-0.091,3.265,0.109,3.729,0.41c1.057,0.684,0.748,3.989-0.142,5.626c-0.618,1.136-2.255,1.715-3.73,1.739L155.178,98.802z
			 M149.024,91.034c-0.727,0.018-3.702-0.84-5.817-1.023c-0.151-0.014-0.304-0.026-0.464-0.034l-0.008,0.554
			c1.719,0.078,3.5,0.468,4.11,1.386c1.001,1.506-0.797,5.189-2.423,6.01c-0.494,0.249-1.146,0.377-1.83,0.384l-0.01,0.521
			c2.848,0.004,3.9-2.049,4.251-2.735c0.662-1.289,0.525-3.067,2.155-3.07c1.628-0.004,1.415,1.741,1.997,3.029
			c0.314,0.695,1.238,2.827,4.193,2.744l0.008-0.519c-0.728,0.012-1.421-0.114-1.929-0.375c-1.576-0.813-3.152-4.487-2.058-5.997
			c0.658-0.912,2.425-1.311,4.13-1.402l0.009-0.553c-0.131,0.007-0.259,0.017-0.384,0.029
			C153.048,90.156,150.737,90.99,149.024,91.034 M142.743,89.978c-2.089-0.111-4.856,0.152-5.367,0.327
			c-0.657,0.228-0.677,0.285-0.724,0.82c-0.045,0.533,0.024,0.994,0.401,1.13c0.519,0.186,0.502,0.902,0.786,2.953
			c0.256,1.867,0.975,3.343,4.254,3.604c0.167,0.014,0.329,0.019,0.488,0.021l0.01-0.521c-1.506,0.012-3.182-0.558-3.746-1.723
			c-0.792-1.634-0.903-4.935,0.201-5.627c0.476-0.298,2.055-0.505,3.689-0.43L142.743,89.978z"/>
		<g opacity="0.05" clip-path="url(#SVGID_4_)">
			<g>
				<defs>
					<rect id="SVGID_39_" x="143.074" y="109.897" width="11.605" height="7.837"/>
				</defs>
				<clipPath id="SVGID_40_">
					<use xlink:href="#SVGID_39_"  overflow="visible"/>
				</clipPath>
				<polygon clip-path="url(#SVGID_40_)" fill-rule="evenodd" clip-rule="evenodd" points="143.074,110.087 148.745,117.734 
					154.679,110.059 154.672,109.897 148.745,117.518 143.074,109.897 				"/>
			</g>
		</g>
		<path clip-path="url(#SVGID_4_)" fill-rule="evenodd" clip-rule="evenodd" fill="#FFDECC" d="M67.252,106.207
			c-13.495,5.916-17.543,9.07-19.143,10.486c-2.466,2.182-3.83,10.316-5.285,17.222h30.531h30.531
			c-1.454-6.906-2.818-15.04-5.284-17.222c-1.599-1.417-5.499-4.489-18.995-10.406L67.252,106.207z"/>
		<path clip-path="url(#SVGID_4_)" fill-rule="evenodd" clip-rule="evenodd" fill="#333333" d="M67.251,106.207
			c-13.495,5.916-17.543,9.07-19.143,10.486c-2.466,2.182-3.83,10.316-5.284,17.222h30.531h30.531
			c-1.455-6.906-2.819-15.04-5.284-17.222c-1.599-1.417-5.499-4.489-18.995-10.406L67.251,106.207z"/>
		<path clip-path="url(#SVGID_4_)" fill-rule="evenodd" clip-rule="evenodd" fill="#FFDBBA" d="M66.803,94.414v10.015v4.944
			c3.603,4.261,9.5,4.414,13.104,0v-4.944V94.414C79.907,86.337,66.803,86.337,66.803,94.414"/>
		<path clip-path="url(#SVGID_4_)" fill-rule="evenodd" clip-rule="evenodd" fill="#FFDBBA" d="M59.691,85.011
			c1.154-0.381,2.622,0.929,3.279,2.925c0.657,1.996,0.255,3.922-0.9,4.302c-1.154,0.38-2.622-0.929-3.279-2.926
			C58.134,87.316,58.537,85.39,59.691,85.011"/>
		<path clip-path="url(#SVGID_4_)" fill-rule="evenodd" clip-rule="evenodd" fill="#FFDBBA" d="M86.961,85.011
			c-1.155-0.381-2.623,0.929-3.28,2.925c-0.657,1.996-0.254,3.922,0.9,4.302c1.155,0.38,2.623-0.929,3.28-2.926
			C88.518,87.316,88.115,85.39,86.961,85.011"/>
		<path clip-path="url(#SVGID_4_)" fill-rule="evenodd" clip-rule="evenodd" fill="#FFFFFF" d="M73.389,112.626
			c0,0-9.144,2.183-9.144,2.736c0,0.553,3.48,18.553,3.48,18.553h12.414l1.422-18.474L73.389,112.626z"/>
		<polygon clip-path="url(#SVGID_4_)" fill-rule="evenodd" clip-rule="evenodd" fill="#605F5B" points="66.803,106.404 
			66.803,109.373 69.65,133.915 64.755,133.915 59.371,122.985 64.51,119.558 58.23,116.621 64.005,107.659 		"/>
		<polygon clip-path="url(#SVGID_4_)" fill-rule="evenodd" clip-rule="evenodd" fill="#605F5B" points="79.907,106.419 
			79.907,109.373 77.033,133.915 81.928,133.915 87.311,122.984 82.173,119.558 88.453,116.621 83.32,107.935 		"/>
		<polygon clip-path="url(#SVGID_4_)" fill-rule="evenodd" clip-rule="evenodd" fill="#C93838" points="70.538,115.661 
			72.124,118.119 74.586,118.119 76.173,115.661 73.389,112.626 		"/>
		<polygon clip-path="url(#SVGID_4_)" fill-rule="evenodd" clip-rule="evenodd" fill="#C93838" points="72.124,118.119 
			69.865,133.915 76.845,133.915 74.586,118.119 		"/>
		<polygon clip-path="url(#SVGID_4_)" fill-rule="evenodd" clip-rule="evenodd" fill="#EDEDED" points="66.803,104.429 
			66.23,106.657 67.834,118.261 73.389,112.626 		"/>
		<g opacity="0.2" clip-path="url(#SVGID_4_)">
			<g>
				<defs>
					<rect id="SVGID_41_" x="66.803" y="101.658" width="13.104" height="4.593"/>
				</defs>
				<clipPath id="SVGID_42_">
					<use xlink:href="#SVGID_41_"  overflow="visible"/>
				</clipPath>
				<path clip-path="url(#SVGID_42_)" d="M66.803,101.658v0.472c0,0,3.348,3.974,6.54,4.117s6.564-3.847,6.564-3.847v-0.726"/>
			</g>
		</g>
		<path clip-path="url(#SVGID_4_)" fill-rule="evenodd" clip-rule="evenodd" fill="#755A48" d="M83.736,68.689
			c3,0.478,4.658,2.534,5.369,5.325c1.848,7.265-2.022,23.02-15.418,23.208c-6.908,0.097-11.884-1.66-13.697-7.252
			c-1.814-5.592-2.557-14.602,1.383-19.652C66.33,63.965,76.736,63.905,83.736,68.689"/>
		<path clip-path="url(#SVGID_4_)" fill-rule="evenodd" clip-rule="evenodd" fill="#FFDBBA" d="M73.366,67.559
			c-20.158,0-12.432,27.612-11.115,29.728c1.452,2.333,7.859,7.475,11.115,7.475c3.257,0,9.663-5.142,11.116-7.475
			C85.799,95.171,93.525,67.559,73.366,67.559"/>
		<path clip-path="url(#SVGID_4_)" fill-rule="evenodd" clip-rule="evenodd" fill="#755A48" d="M63.613,76.232
			c3.59,2.183,6.367-1.074,9.609,0.323c3.242,1.397,12.011-5.321,13.925,9.436c3.067-10.702-1.583-18.35-13.28-18.859
			c-12.493-0.544-17.552,10.842-14.098,21.473C59.542,82.845,60.951,79.077,63.613,76.232"/>
		<path clip-path="url(#SVGID_4_)" fill="#755A48" d="M63.291,75.277c0.086,1.839,3.222,2.149,4.56,2.229
			c1.256,0.075,2.47-0.102,3.675-0.467c1.47-0.445,3.328-0.945,4.525-1.938c0.114-0.095,0.058-0.323-0.091-0.347
			c-2.318-0.372-4.667,1.566-7.026,1.714c-1.772,0.111-4.017-0.098-5.417-1.285C63.435,75.115,63.285,75.154,63.291,75.277"/>
		<path clip-path="url(#SVGID_4_)" fill-rule="evenodd" clip-rule="evenodd" fill="#333333" d="M79.592,93.267
			c0.113-0.003,0.23-0.01,0.351-0.02c3.279-0.274,4.087-1.748,4.455-3.609c0.406-2.045,0.432-2.756,0.96-2.943
			c0.386-0.139,0.481-0.596,0.47-1.129c-0.014-0.53-0.031-0.588-0.671-0.81c-0.506-0.177-3.306-0.43-5.406-0.298l-0.009,0.55
			c1.655-0.09,3.251,0.109,3.713,0.408c1.053,0.682,0.746,3.972-0.142,5.602c-0.616,1.131-2.245,1.707-3.713,1.732L79.592,93.267z
			 M73.464,85.533c-0.724,0.017-3.686-0.837-5.792-1.019c-0.15-0.014-0.303-0.025-0.461-0.034l-0.008,0.551
			c1.712,0.078,3.485,0.466,4.092,1.38c0.997,1.5-0.794,5.167-2.413,5.984c-0.492,0.248-1.141,0.376-1.822,0.383l-0.01,0.519
			c2.836,0.004,3.884-2.04,4.234-2.723c0.659-1.284,0.523-3.054,2.146-3.057c1.621-0.004,1.409,1.734,1.988,3.016
			c0.312,0.692,1.233,2.815,4.175,2.732l0.008-0.517c-0.726,0.011-1.416-0.114-1.922-0.374c-1.569-0.809-3.139-4.468-2.049-5.972
			c0.656-0.908,2.415-1.305,4.112-1.397l0.009-0.55c-0.13,0.007-0.258,0.016-0.382,0.028C77.47,84.658,75.17,85.488,73.464,85.533
			 M67.21,84.48c-2.08-0.111-4.836,0.151-5.344,0.326c-0.654,0.226-0.674,0.284-0.721,0.816c-0.045,0.531,0.025,0.989,0.4,1.125
			c0.516,0.186,0.499,0.898,0.782,2.94c0.254,1.859,0.971,3.328,4.236,3.588c0.167,0.014,0.329,0.02,0.486,0.022l0.01-0.519
			c-1.5,0.012-3.168-0.555-3.73-1.715c-0.788-1.627-0.898-4.915,0.2-5.603c0.474-0.297,2.046-0.503,3.673-0.428L67.21,84.48z"/>
		<polygon clip-path="url(#SVGID_4_)" fill-rule="evenodd" clip-rule="evenodd" fill="#EDEDED" points="79.907,104.429 
			80.36,106.621 78.853,118.377 73.389,112.626 		"/>
		<g opacity="0.05" clip-path="url(#SVGID_4_)">
			<g>
				<defs>
					<rect id="SVGID_43_" x="66.803" y="104.234" width="13.104" height="8.392"/>
				</defs>
				<clipPath id="SVGID_44_">
					<use xlink:href="#SVGID_43_"  overflow="visible"/>
				</clipPath>
				<polygon clip-path="url(#SVGID_44_)" points="66.803,104.429 73.389,112.626 79.907,104.429 79.907,104.234 73.389,112.394 
					66.803,104.234 				"/>
			</g>
		</g>
		<g opacity="0.1" clip-path="url(#SVGID_4_)">
			<g>
				<defs>
					<rect id="SVGID_45_" x="72.113" y="118.119" width="2.484" height="0.08"/>
				</defs>
				<clipPath id="SVGID_46_">
					<use xlink:href="#SVGID_45_"  overflow="visible"/>
				</clipPath>
				<polygon clip-path="url(#SVGID_46_)" fill-rule="evenodd" clip-rule="evenodd" points="72.124,118.119 74.586,118.119 
					74.597,118.2 72.113,118.2 				"/>
			</g>
		</g>
		<path clip-path="url(#SVGID_4_)" fill-rule="evenodd" clip-rule="evenodd" fill="#FFDECC" d="M100.843,114.238
			c-13.495,5.916-17.543,9.069-19.143,10.486c-2.466,2.182-3.83,10.316-5.284,17.222h30.531h30.531
			c-1.454-6.906-2.819-15.04-5.284-17.222c-1.599-1.416-5.499-4.489-18.995-10.405L100.843,114.238z"/>
		<path clip-path="url(#SVGID_4_)" fill-rule="evenodd" clip-rule="evenodd" fill="#333333" d="M100.843,114.238
			c-13.495,5.916-17.543,9.069-19.143,10.486c-2.466,2.182-3.83,10.316-5.284,17.222h30.531h30.531
			c-1.454-6.906-2.819-15.04-5.284-17.222c-1.599-1.416-5.499-4.489-18.995-10.405L100.843,114.238z"/>
		<path clip-path="url(#SVGID_4_)" fill-rule="evenodd" clip-rule="evenodd" fill="#F6C5A0" d="M100.395,102.444v10.015v4.944
			c3.604,4.261,9.5,4.414,13.104,0v-4.944v-10.015C113.499,94.367,100.395,94.367,100.395,102.444"/>
		<path clip-path="url(#SVGID_4_)" fill-rule="evenodd" clip-rule="evenodd" fill="#F6C5A0" d="M93.283,93.04
			c1.154-0.381,2.622,0.93,3.279,2.925c0.657,1.996,0.255,3.922-0.9,4.302c-1.154,0.38-2.622-0.929-3.279-2.926
			C91.725,95.346,92.129,93.42,93.283,93.04"/>
		<path clip-path="url(#SVGID_4_)" fill-rule="evenodd" clip-rule="evenodd" fill="#F6C5A0" d="M120.553,93.04
			c-1.155-0.381-2.623,0.93-3.28,2.925c-0.657,1.996-0.254,3.922,0.9,4.302c1.155,0.38,2.624-0.929,3.28-2.926
			C122.11,95.346,121.706,93.42,120.553,93.04"/>
		<path clip-path="url(#SVGID_4_)" fill-rule="evenodd" clip-rule="evenodd" fill="#9FBAC4" d="M106.981,120.656
			c0,0-9.144,2.182-9.144,2.736c0,0.554,3.479,18.553,3.479,18.553h12.414l1.423-18.474L106.981,120.656z"/>
		<polygon clip-path="url(#SVGID_4_)" fill-rule="evenodd" clip-rule="evenodd" fill="#1A1A1A" points="100.395,114.434 
			100.395,117.403 103.241,141.945 98.346,141.945 92.962,131.014 98.102,127.588 91.821,124.651 97.597,115.688 		"/>
		<polygon clip-path="url(#SVGID_4_)" fill-rule="evenodd" clip-rule="evenodd" fill="#1B1B1B" points="113.499,114.45 
			113.499,117.403 110.625,141.945 115.519,141.945 120.903,131.014 115.764,127.588 122.044,124.651 116.911,115.965 		"/>
		<polygon clip-path="url(#SVGID_4_)" fill-rule="evenodd" clip-rule="evenodd" fill="#5F99F0" points="104.129,123.691 
			105.716,126.149 108.177,126.149 109.765,123.691 106.981,120.656 		"/>
		<polygon clip-path="url(#SVGID_4_)" fill-rule="evenodd" clip-rule="evenodd" fill="#5F99F0" points="105.716,126.149 
			103.457,141.945 110.437,141.945 108.177,126.149 		"/>
		<polygon clip-path="url(#SVGID_4_)" fill-rule="evenodd" clip-rule="evenodd" fill="#FFFFFF" points="100.395,112.459 
			99.822,114.687 101.425,126.291 106.981,120.656 		"/>
		<g opacity="0.2" clip-path="url(#SVGID_4_)">
			<g>
				<defs>
					<rect id="SVGID_47_" x="100.394" y="109.688" width="13.104" height="4.593"/>
				</defs>
				<clipPath id="SVGID_48_">
					<use xlink:href="#SVGID_47_"  overflow="visible"/>
				</clipPath>
				<path clip-path="url(#SVGID_48_)" d="M100.395,109.688v0.473c0,0,3.348,3.973,6.54,4.117c3.193,0.143,6.564-3.847,6.564-3.847
					v-0.726"/>
			</g>
		</g>
		<path clip-path="url(#SVGID_4_)" fill-rule="evenodd" clip-rule="evenodd" fill="#F6C5A0" d="M106.958,75.588
			c-20.158,0-12.432,27.613-11.116,29.728c1.452,2.333,7.859,7.475,11.116,7.475c3.257,0,9.663-5.142,11.116-7.475
			C119.391,103.201,127.117,75.588,106.958,75.588"/>
		<path clip-path="url(#SVGID_4_)" fill="#605343" d="M116,76.233c-6.808-5.357-17.321-2.163-20.495,2.301
			c-3.973,5.587-2.568,14.07-1.627,20.444c0-0.01,0-0.018,0-0.028c0.011,0.064,0.024,0.13,0.041,0.198
			c0.014,0.052,0.127,0.198,0.149,0.239c0.033,0.06,0.28-0.005,0.362-0.045c0.03-0.014,0.043-0.053,0.045-0.086
			c0.038-0.562,0.004-1.677,0.003-1.69c-0.075-0.877-0.265-1.721-0.394-2.579c0.637-4.018,2.523-4.863,3.512-9.709
			c0.209-0.324,0.433-0.638,0.667-0.944c0.27-0.351,0.55-0.69,0.876-0.991c0.172-0.104,0.337-0.218,0.496-0.342
			c3.664-1.342,7.442,0.268,10.901,1.679c1.322,0.54,2.806,1.178,4.264,1.065c0.623-0.049,1.102-0.46,1.147-0.986
			c1.656,4.959,3.02,7.259,3.825,10.895c-0.11,0.632-0.229,1.262-0.284,1.911c-0.002,0.013-0.035,1.128,0.002,1.69
			c0.002,0.033,0.015,0.072,0.045,0.086c0.082,0.04,0.329,0.105,0.362,0.045c0.022-0.04,0.135-0.187,0.149-0.239
			c0.062-0.243,0.075-0.447,0.087-0.691c0.042-0.318,0.098-0.658,0.14-1.001C121.322,93.52,123.253,77.923,116,76.233
			 M105.681,81.498c-0.113-0.036-0.226-0.068-0.34-0.101c0.168,0.041,0.337,0.085,0.505,0.132
			C105.792,81.518,105.737,81.508,105.681,81.498"/>
		<polygon clip-path="url(#SVGID_4_)" fill-rule="evenodd" clip-rule="evenodd" fill="#FFFFFF" points="113.499,112.459 
			113.951,114.651 112.445,126.407 106.981,120.656 		"/>
		<g opacity="0.05" clip-path="url(#SVGID_4_)">
			<g>
				<defs>
					<rect id="SVGID_49_" x="100.394" y="112.264" width="13.104" height="8.392"/>
				</defs>
				<clipPath id="SVGID_50_">
					<use xlink:href="#SVGID_49_"  overflow="visible"/>
				</clipPath>
				<polygon clip-path="url(#SVGID_50_)" points="100.395,112.459 106.981,120.656 113.499,112.459 113.499,112.264 
					106.981,120.424 100.395,112.264 				"/>
			</g>
		</g>
		<g opacity="0.1" clip-path="url(#SVGID_4_)">
			<g>
				<defs>
					<rect id="SVGID_51_" x="105.704" y="126.149" width="2.484" height="0.08"/>
				</defs>
				<clipPath id="SVGID_52_">
					<use xlink:href="#SVGID_51_"  overflow="visible"/>
				</clipPath>
				<polygon clip-path="url(#SVGID_52_)" fill-rule="evenodd" clip-rule="evenodd" points="105.716,126.149 108.177,126.149 
					108.189,126.23 105.704,126.23 				"/>
			</g>
		</g>
	</g>
</g>
</svg>
