<?xml version="1.0" encoding="utf-8"?>
<!-- Generator: Adobe Illustrator 17.0.0, SVG Export Plug-In . SVG Version: 6.00 Build 0)  -->
<!DOCTYPE svg PUBLIC "-//W3C//DTD SVG 1.1//EN" "http://www.w3.org/Graphics/SVG/1.1/DTD/svg11.dtd">
<svg version="1.1" id="Layer_1" xmlns="http://www.w3.org/2000/svg" xmlns:xlink="http://www.w3.org/1999/xlink" x="0px" y="0px"
	 width="170.901px" height="28.681px" viewBox="0 0 170.901 28.681" enable-background="new 0 0 170.901 28.681"
	 xml:space="preserve">
<g>
	<path fill="#FFFFFF" d="M39.213,9.252c-0.144-0.556-0.34-1.066-0.591-1.532s-0.574-0.868-0.968-1.209
		c-0.394-0.34-0.856-0.605-1.384-0.793c-0.529-0.188-1.142-0.282-1.841-0.282c-1.021,0-1.905,0.206-2.648,0.618
		c-0.744,0.412-1.348,0.964-1.813,1.652c-0.467,0.691-0.812,1.475-1.035,2.353c-0.225,0.878-0.336,1.773-0.336,2.688
		s0.111,1.811,0.336,2.688c0.224,0.88,0.569,1.663,1.035,2.353c0.465,0.689,1.07,1.24,1.813,1.652
		c0.743,0.413,1.626,0.619,2.648,0.619c0.753,0,1.415-0.131,1.989-0.391c0.573-0.259,1.065-0.617,1.478-1.075
		c0.412-0.456,0.735-0.989,0.968-1.599c0.232-0.608,0.384-1.264,0.457-1.962H42.6c-0.071,1.146-0.318,2.195-0.739,3.145
		c-0.421,0.95-0.99,1.77-1.708,2.46c-0.716,0.689-1.559,1.223-2.526,1.599c-0.967,0.376-2.034,0.564-3.198,0.564
		c-1.434,0-2.719-0.265-3.857-0.793c-1.138-0.528-2.101-1.251-2.889-2.163c-0.79-0.914-1.394-1.979-1.816-3.199
		c-0.42-1.219-0.631-2.518-0.631-3.897c0-1.361,0.21-2.651,0.631-3.87c0.421-1.219,1.026-2.285,1.816-3.198
		c0.788-0.914,1.751-1.64,2.889-2.178s2.423-0.807,3.857-0.807c1.074,0,2.086,0.147,3.036,0.443s1.788,0.726,2.514,1.291
		c0.726,0.564,1.312,1.25,1.761,2.056c0.448,0.807,0.726,1.729,0.833,2.769h-3.36V9.252z"/>
	<path fill="#FFFFFF" d="M45.232,3.15h3.064v7.122h0.054c0.376-0.626,0.937-1.15,1.68-1.571s1.572-0.633,2.486-0.633
		c1.522,0,2.724,0.396,3.602,1.184c0.877,0.788,1.317,1.972,1.317,3.548v9.542h-3.064v-8.736c-0.036-1.092-0.269-1.885-0.698-2.378
		c-0.431-0.493-1.103-0.739-2.016-0.739c-0.521,0-0.986,0.094-1.398,0.282c-0.413,0.188-0.761,0.448-1.048,0.779
		c-0.287,0.332-0.51,0.722-0.672,1.17c-0.162,0.447-0.242,0.923-0.242,1.424v8.197h-3.064V3.15H45.232z"/>
	<path fill="#FFFFFF" d="M63.053,16.186c0,0.537,0.076,1.058,0.229,1.559c0.152,0.502,0.38,0.941,0.686,1.317
		c0.304,0.376,0.69,0.676,1.156,0.9c0.466,0.224,1.021,0.336,1.667,0.336c0.896,0,1.616-0.192,2.163-0.578
		c0.546-0.385,0.954-0.963,1.223-1.733h2.902c-0.161,0.752-0.438,1.425-0.833,2.016c-0.394,0.591-0.869,1.089-1.424,1.491
		c-0.555,0.403-1.178,0.709-1.868,0.915s-1.411,0.309-2.163,0.309c-1.094,0-2.061-0.179-2.904-0.537
		c-0.842-0.358-1.554-0.861-2.136-1.506c-0.583-0.646-1.022-1.415-1.317-2.312s-0.444-1.881-0.444-2.956
		c0-0.985,0.157-1.922,0.47-2.81c0.313-0.887,0.761-1.666,1.344-2.338c0.582-0.673,1.286-1.205,2.109-1.599
		c0.824-0.395,1.756-0.593,2.795-0.593c1.093,0,2.074,0.229,2.943,0.687c0.87,0.457,1.59,1.061,2.164,1.813s0.99,1.618,1.25,2.595
		s0.327,1.984,0.202,3.023L63.053,16.186L63.053,16.186z M70.202,14.171c-0.036-0.484-0.139-0.949-0.309-1.397
		s-0.403-0.838-0.699-1.17c-0.295-0.332-0.654-0.6-1.075-0.806s-0.891-0.31-1.411-0.31c-0.538,0-1.026,0.094-1.465,0.282
		c-0.439,0.188-0.815,0.448-1.128,0.779c-0.314,0.332-0.564,0.722-0.753,1.17c-0.188,0.447-0.291,0.931-0.309,1.45L70.202,14.171
		L70.202,14.171z"/>
	<path fill="#FFFFFF" d="M84.985,13.095c-0.126-0.86-0.47-1.51-1.035-1.948c-0.564-0.439-1.276-0.658-2.136-0.658
		c-0.396,0-0.815,0.066-1.264,0.201c-0.448,0.134-0.86,0.385-1.237,0.752c-0.375,0.367-0.689,0.879-0.94,1.532
		c-0.251,0.654-0.377,1.511-0.377,2.566c0,0.574,0.068,1.147,0.202,1.72c0.135,0.574,0.349,1.085,0.645,1.532
		c0.296,0.448,0.676,0.812,1.142,1.089c0.466,0.278,1.031,0.417,1.694,0.417c0.896,0,1.635-0.278,2.217-0.834
		c0.582-0.555,0.945-1.334,1.089-2.337h3.064c-0.287,1.81-0.972,3.194-2.056,4.152c-1.085,0.958-2.522,1.438-4.314,1.438
		c-1.092,0-2.056-0.184-2.889-0.551s-1.537-0.869-2.11-1.506c-0.574-0.636-1.008-1.392-1.304-2.271
		c-0.296-0.878-0.444-1.828-0.444-2.85c0-1.039,0.144-2.016,0.43-2.93c0.287-0.913,0.717-1.706,1.291-2.378
		c0.572-0.673,1.285-1.2,2.136-1.587c0.851-0.384,1.851-0.578,2.998-0.578c0.807,0,1.572,0.104,2.298,0.31
		c0.727,0.207,1.371,0.516,1.935,0.928c0.564,0.413,1.026,0.932,1.384,1.559c0.358,0.628,0.573,1.372,0.645,2.231h-3.064V13.095z"/>
	<path fill="#FFFFFF" d="M90.63,3.15h3.064v10.912l5.537-5.617h3.763l-5.321,5.106l5.833,8.79H99.77l-4.247-6.746l-1.827,1.773
		v4.973h-3.064V3.15H90.63z"/>
	<polygon fill="#6AD17F" points="2.791,9.623 1.016,12.033 8.045,19.728 21.944,5.907 19.801,4.042 8.062,15.798 	"/>
	<g>
		
			<rect x="107.767" y="0.915" fill="none" stroke="#6AD17F" stroke-width="1.2023" stroke-miterlimit="10" width="62.117" height="26.851"/>
		<path fill="#6AD17F" d="M118.286,9.909v1.839h-2.526v7.87c0,0.245,0.02,0.442,0.061,0.588c0.041,0.147,0.118,0.262,0.233,0.343
			c0.114,0.082,0.274,0.135,0.478,0.16c0.204,0.024,0.47,0.037,0.797,0.037h0.956v1.839h-1.594c-0.539,0-1.001-0.037-1.385-0.11
			c-0.384-0.073-0.695-0.208-0.931-0.405c-0.237-0.196-0.413-0.474-0.527-0.833c-0.115-0.359-0.172-0.834-0.172-1.422v-8.066h-2.158
			V9.909h2.158v-3.8h2.084v3.8L118.286,9.909L118.286,9.909z"/>
		<path fill="#6AD17F" d="M122.674,5.079v6.693h0.049c0.163-0.392,0.392-0.723,0.687-0.993c0.294-0.27,0.626-0.491,0.993-0.662
			c0.367-0.172,0.751-0.298,1.152-0.38c0.4-0.082,0.788-0.123,1.164-0.123c0.834,0,1.528,0.115,2.084,0.343
			c0.556,0.229,1.005,0.548,1.349,0.956c0.343,0.409,0.584,0.895,0.723,1.459c0.139,0.564,0.208,1.189,0.208,1.876v8.336H129v-8.58
			c0-0.785-0.229-1.405-0.686-1.863c-0.458-0.458-1.087-0.686-1.888-0.686c-0.638,0-1.189,0.098-1.655,0.294
			c-0.466,0.196-0.854,0.474-1.164,0.834c-0.311,0.359-0.543,0.781-0.699,1.262c-0.155,0.483-0.233,1.01-0.233,1.581v7.159h-2.084
			V5.079C120.591,5.079,122.674,5.079,122.674,5.079z"/>
		<path fill="#6AD17F" d="M143.195,21.776c-0.948,0.719-2.141,1.078-3.58,1.078c-1.014,0-1.892-0.164-2.635-0.491
			c-0.744-0.327-1.369-0.784-1.876-1.373c-0.507-0.588-0.886-1.291-1.14-2.108c-0.254-0.817-0.397-1.708-0.429-2.673
			c0-0.964,0.147-1.847,0.442-2.648c0.294-0.801,0.707-1.495,1.238-2.084c0.531-0.589,1.161-1.046,1.888-1.373
			c0.727-0.327,1.524-0.491,2.391-0.491c1.128,0,2.063,0.233,2.807,0.699c0.743,0.466,1.34,1.058,1.79,1.778
			c0.449,0.719,0.76,1.504,0.931,2.354c0.172,0.85,0.241,1.659,0.209,2.427h-9.488c-0.016,0.556,0.049,1.083,0.196,1.581
			c0.147,0.499,0.384,0.94,0.711,1.324c0.327,0.384,0.743,0.691,1.25,0.919c0.507,0.229,1.103,0.343,1.79,0.343
			c0.882,0,1.606-0.204,2.17-0.613c0.564-0.408,0.935-1.03,1.115-1.863h2.06C144.756,19.986,144.143,21.056,143.195,21.776z
			 M142.693,13.636c-0.188-0.441-0.442-0.821-0.76-1.14c-0.318-0.319-0.695-0.572-1.128-0.76c-0.433-0.188-0.911-0.282-1.434-0.282
			c-0.539,0-1.026,0.094-1.459,0.282c-0.433,0.188-0.805,0.446-1.115,0.772c-0.311,0.327-0.556,0.707-0.735,1.14
			c-0.18,0.433-0.287,0.895-0.319,1.385h7.282C142.991,14.543,142.88,14.077,142.693,13.636z"/>
		<path fill="#6AD17F" d="M149.349,9.909v1.863h0.049c0.948-1.438,2.313-2.157,4.095-2.157c0.784,0,1.495,0.164,2.133,0.491
			c0.638,0.327,1.087,0.882,1.348,1.667c0.425-0.686,0.985-1.217,1.68-1.594c0.694-0.376,1.459-0.564,2.292-0.564
			c0.638,0,1.214,0.07,1.728,0.208c0.515,0.139,0.957,0.355,1.324,0.65c0.368,0.294,0.654,0.674,0.858,1.14
			c0.204,0.466,0.307,1.026,0.307,1.679v9.292h-2.084v-8.311c0-0.392-0.033-0.76-0.098-1.103c-0.065-0.343-0.188-0.641-0.367-0.895
			c-0.18-0.253-0.429-0.454-0.748-0.601c-0.319-0.147-0.731-0.221-1.238-0.221c-1.03,0-1.839,0.294-2.427,0.883
			c-0.589,0.588-0.883,1.373-0.883,2.354v7.894h-2.084v-8.311c0-0.408-0.037-0.785-0.11-1.128c-0.073-0.343-0.2-0.641-0.38-0.895
			c-0.18-0.253-0.421-0.449-0.723-0.588c-0.303-0.139-0.691-0.208-1.165-0.208c-0.605,0-1.124,0.123-1.557,0.368
			c-0.433,0.245-0.785,0.539-1.054,0.882c-0.27,0.343-0.466,0.699-0.588,1.066c-0.123,0.368-0.184,0.674-0.184,0.919v7.894h-2.084
			V9.909H149.349z"/>
	</g>
</g>
</svg>
