<?xml version="1.0" encoding="utf-8"?>
<!-- Generator: Adobe Illustrator 17.0.0, SVG Export Plug-In . SVG Version: 6.00 Build 0)  -->
<!DOCTYPE svg PUBLIC "-//W3C//DTD SVG 1.1//EN" "http://www.w3.org/Graphics/SVG/1.1/DTD/svg11.dtd">
<svg version="1.1" id="Layer_1" xmlns="http://www.w3.org/2000/svg" xmlns:xlink="http://www.w3.org/1999/xlink" x="0px" y="0px"
	 width="423px" height="74px" viewBox="0 0 423 74" enable-background="new 0 0 423 74" xml:space="preserve">
<g>
	<g>
		<path fill="#3A3A3A" d="M98.178,25.437c-0.351-1.354-0.83-2.599-1.441-3.735c-0.613-1.136-1.399-2.118-2.359-2.949
			c-0.962-0.829-2.088-1.475-3.375-1.933c-1.289-0.459-2.785-0.688-4.489-0.688c-2.49,0-4.643,0.503-6.455,1.508
			c-1.813,1.005-3.288,2.349-4.423,4.03c-1.137,1.682-1.978,3.594-2.523,5.733c-0.547,2.142-0.819,4.325-0.819,6.554
			c0,2.228,0.272,4.413,0.819,6.553c0.546,2.142,1.387,4.053,2.523,5.734c1.135,1.683,2.609,3.025,4.423,4.03
			c1.812,1.006,3.965,1.507,6.455,1.507c1.835,0,3.45-0.316,4.849-0.95c1.398-0.633,2.6-1.507,3.605-2.621
			c1.004-1.114,1.791-2.413,2.359-3.899c0.566-1.484,0.938-3.08,1.113-4.783h7.995c-0.175,2.796-0.776,5.352-1.802,7.667
			c-1.027,2.316-2.415,4.314-4.162,5.996c-1.748,1.683-3.801,2.981-6.16,3.899c-2.359,0.917-4.959,1.376-7.798,1.376
			c-3.495,0-6.63-0.646-9.403-1.934c-2.775-1.288-5.123-3.047-7.045-5.275c-1.924-2.228-3.398-4.826-4.424-7.798
			c-1.027-2.971-1.54-6.138-1.54-9.502c0-3.32,0.513-6.466,1.54-9.437c1.025-2.971,2.5-5.57,4.424-7.799
			c1.922-2.228,4.27-3.997,7.045-5.308c2.773-1.312,5.908-1.967,9.403-1.967c2.621,0,5.089,0.361,7.405,1.082
			c2.314,0.721,4.357,1.769,6.127,3.146c1.77,1.376,3.2,3.047,4.293,5.013c1.091,1.966,1.77,4.217,2.031,6.75
			C106.369,25.437,98.178,25.437,98.178,25.437z"/>
		<path fill="#3A3A3A" d="M112.855,10.561h7.471v17.366h0.131c0.918-1.528,2.283-2.807,4.096-3.834
			c1.812-1.025,3.834-1.54,6.062-1.54c3.713,0,6.641,0.962,8.781,2.884c2.141,1.923,3.211,4.807,3.211,8.65v23.264h-7.471V36.053
			c-0.088-2.664-0.655-4.598-1.703-5.8c-1.049-1.201-2.688-1.802-4.916-1.802c-1.268,0-2.402,0.229-3.407,0.688
			c-1.005,0.458-1.857,1.092-2.556,1.9c-0.699,0.809-1.245,1.759-1.639,2.851c-0.393,1.092-0.59,2.25-0.59,3.473V57.35h-7.471
			L112.855,10.561L112.855,10.561z"/>
		<path fill="#3A3A3A" d="M156.303,42.344c0,1.311,0.186,2.578,0.557,3.801c0.371,1.224,0.928,2.294,1.672,3.211
			c0.742,0.918,1.682,1.65,2.818,2.195c1.135,0.547,2.489,0.819,4.062,0.819c2.184,0,3.941-0.469,5.275-1.408
			c1.332-0.939,2.326-2.349,2.981-4.228h7.077c-0.393,1.835-1.07,3.474-2.031,4.915s-2.119,2.654-3.473,3.637
			c-1.355,0.983-2.873,1.727-4.555,2.229c-1.683,0.502-3.441,0.754-5.275,0.754c-2.666,0-5.025-0.438-7.078-1.311
			c-2.054-0.874-3.79-2.098-5.209-3.67c-1.42-1.573-2.49-3.451-3.211-5.636s-1.082-4.588-1.082-7.209
			c0-2.402,0.383-4.686,1.146-6.848c0.764-2.163,1.857-4.063,3.277-5.701c1.419-1.639,3.135-2.938,5.145-3.899
			c2.008-0.961,4.281-1.442,6.814-1.442c2.664,0,5.057,0.558,7.176,1.672c2.119,1.113,3.877,2.588,5.275,4.423
			s2.414,3.943,3.048,6.324c0.633,2.382,0.796,4.839,0.491,7.372C181.203,42.344,156.303,42.344,156.303,42.344z M173.734,37.429
			c-0.088-1.18-0.339-2.314-0.754-3.407c-0.416-1.092-0.982-2.042-1.703-2.851s-1.596-1.464-2.621-1.966
			c-1.027-0.502-2.174-0.754-3.441-0.754c-1.311,0-2.501,0.229-3.571,0.688c-1.071,0.458-1.988,1.092-2.752,1.9
			c-0.765,0.809-1.376,1.759-1.835,2.851s-0.711,2.271-0.754,3.538L173.734,37.429L173.734,37.429z"/>
		<path fill="#3A3A3A" d="M209.777,34.808c-0.307-2.097-1.146-3.68-2.523-4.751c-1.376-1.07-3.112-1.605-5.209-1.605
			c-0.962,0-1.988,0.164-3.08,0.491c-1.093,0.328-2.098,0.94-3.015,1.835c-0.917,0.896-1.683,2.142-2.294,3.735
			c-0.612,1.596-0.918,3.682-0.918,6.259c0,1.398,0.164,2.796,0.492,4.193c0.328,1.399,0.852,2.645,1.572,3.735
			c0.721,1.093,1.648,1.978,2.785,2.654c1.136,0.678,2.512,1.016,4.129,1.016c2.184,0,3.986-0.677,5.406-2.031
			c1.42-1.354,2.305-3.254,2.654-5.701h7.471c-0.699,4.413-2.371,7.788-5.014,10.125c-2.644,2.337-6.149,3.506-10.518,3.506
			c-2.665,0-5.014-0.449-7.045-1.344s-3.746-2.118-5.145-3.67c-1.398-1.55-2.457-3.396-3.178-5.537s-1.082-4.456-1.082-6.946
			c0-2.533,0.35-4.915,1.049-7.144c0.699-2.228,1.747-4.161,3.146-5.8c1.396-1.638,3.134-2.926,5.209-3.866
			c2.074-0.938,4.511-1.409,7.307-1.409c1.967,0,3.834,0.252,5.604,0.754c1.77,0.503,3.342,1.257,4.719,2.261
			c1.375,1.006,2.5,2.272,3.375,3.801c0.873,1.53,1.396,3.343,1.572,5.439H209.777z"/>
		<path fill="#3A3A3A" d="M223.539,10.561h7.471v26.606l13.5-13.696h9.174l-12.975,12.451l14.221,21.429h-9.109l-10.354-16.448
			l-4.456,4.325v12.123h-7.471L223.539,10.561L223.539,10.561z"/>
	</g>
	<polygon fill="#6AD17F" points="9.378,26.34 5.049,32.218 22.187,50.98 56.076,17.282 50.849,12.735 22.23,41.397 	"/>
	<rect x="262.5" y="3.5" fill="none" stroke="#6AD17F" stroke-width="3" stroke-miterlimit="10" width="155" height="67"/>
</g>
<g>
	<path fill="#6AD17F" d="M288.748,25.943v4.588h-6.302v19.638c0,0.611,0.051,1.102,0.153,1.468c0.102,0.367,0.295,0.653,0.581,0.856
		c0.285,0.205,0.683,0.337,1.193,0.398c0.509,0.061,1.172,0.092,1.988,0.092h2.386v4.588h-3.977c-1.346,0-2.499-0.092-3.457-0.275
		s-1.733-0.52-2.324-1.01c-0.592-0.489-1.03-1.182-1.315-2.079c-0.286-0.897-0.428-2.08-0.428-3.549V30.531h-5.384v-4.588h5.384
		V16.46h5.199v9.482H288.748z"/>
	<path fill="#6AD17F" d="M299.697,13.891v16.701h0.122c0.407-0.979,0.979-1.805,1.713-2.478c0.734-0.673,1.561-1.224,2.479-1.652
		c0.917-0.428,1.875-0.744,2.875-0.948c0.999-0.204,1.967-0.306,2.905-0.306c2.08,0,3.813,0.286,5.2,0.856
		c1.387,0.571,2.509,1.367,3.365,2.386c0.856,1.02,1.457,2.233,1.805,3.64c0.346,1.407,0.52,2.967,0.52,4.68v20.8h-5.2V36.16
		c0-1.958-0.571-3.507-1.713-4.649c-1.142-1.142-2.712-1.713-4.71-1.713c-1.591,0-2.968,0.245-4.13,0.734s-2.132,1.183-2.905,2.08
		c-0.775,0.897-1.356,1.948-1.744,3.15c-0.388,1.204-0.581,2.519-0.581,3.946v17.863h-5.2v-43.68H299.697z"/>
	<path fill="#6AD17F" d="M350.902,55.553c-2.365,1.795-5.343,2.691-8.932,2.691c-2.529,0-4.721-0.408-6.576-1.224
		c-1.856-0.815-3.417-1.957-4.681-3.426c-1.264-1.468-2.212-3.222-2.844-5.261c-0.633-2.039-0.99-4.262-1.071-6.669
		c0-2.405,0.367-4.608,1.102-6.607c0.734-1.998,1.764-3.731,3.089-5.2s2.896-2.61,4.711-3.426c1.814-0.815,3.803-1.224,5.965-1.224
		c2.814,0,5.148,0.581,7.005,1.743c1.855,1.163,3.344,2.641,4.466,4.436c1.121,1.795,1.896,3.753,2.324,5.873
		c0.429,2.121,0.602,4.14,0.521,6.057h-23.676c-0.041,1.387,0.123,2.702,0.489,3.945c0.367,1.245,0.958,2.346,1.774,3.304
		c0.815,0.959,1.855,1.724,3.12,2.294c1.264,0.572,2.753,0.856,4.466,0.856c2.202,0,4.007-0.509,5.414-1.529
		c1.407-1.019,2.334-2.569,2.783-4.649h5.14C354.797,51.087,353.268,53.758,350.902,55.553z M349.648,35.242
		c-0.47-1.101-1.102-2.049-1.896-2.845s-1.733-1.427-2.814-1.896c-1.081-0.468-2.273-0.704-3.578-0.704
		c-1.346,0-2.561,0.235-3.641,0.704c-1.081,0.469-2.009,1.112-2.783,1.927c-0.775,0.816-1.387,1.765-1.835,2.845
		c-0.449,1.081-0.715,2.233-0.796,3.456h18.17C350.393,37.506,350.117,36.343,349.648,35.242z"/>
	<path fill="#6AD17F" d="M366.257,25.943v4.649h0.122c2.365-3.588,5.771-5.383,10.217-5.383c1.957,0,3.731,0.408,5.322,1.224
		c1.591,0.816,2.712,2.202,3.364,4.16c1.061-1.713,2.457-3.038,4.191-3.977c1.732-0.938,3.64-1.407,5.72-1.407
		c1.591,0,3.028,0.174,4.312,0.52c1.285,0.347,2.387,0.887,3.304,1.621c0.918,0.734,1.631,1.682,2.142,2.845
		c0.509,1.162,0.765,2.56,0.765,4.19v23.186h-5.2V36.833c0-0.979-0.082-1.896-0.245-2.753s-0.469-1.6-0.917-2.233
		c-0.449-0.632-1.071-1.132-1.866-1.499s-1.825-0.551-3.089-0.551c-2.57,0-4.589,0.734-6.057,2.203
		c-1.469,1.468-2.203,3.426-2.203,5.873v19.699h-5.199V36.833c0-1.019-0.092-1.958-0.275-2.814s-0.5-1.6-0.948-2.233
		c-0.449-0.632-1.051-1.121-1.805-1.468c-0.756-0.346-1.724-0.52-2.906-0.52c-1.509,0-2.805,0.306-3.885,0.918
		c-1.081,0.612-1.958,1.346-2.631,2.202s-1.162,1.744-1.468,2.661c-0.306,0.918-0.459,1.683-0.459,2.294v19.699h-5.2V25.943H366.257
		z"/>
</g>
</svg>
